<?xml version="1.0" encoding="UTF-8"?>
<!DOCTYPE svg PUBLIC "-//W3C//DTD SVG 1.1//EN" "http://www.w3.org/Graphics/SVG/1.1/DTD/svg11.dtd">
<svg xmlns="http://www.w3.org/2000/svg" version="1.1" width="640px" height="615px" style="shape-rendering:geometricPrecision; text-rendering:geometricPrecision; image-rendering:optimizeQuality; fill-rule:evenodd; clip-rule:evenodd" xmlns:xlink="http://www.w3.org/1999/xlink">
<g><path style="opacity:1" fill="#fefefe" d="M -0.5,-0.5 C 212.833,-0.5 426.167,-0.5 639.5,-0.5C 639.5,204.5 639.5,409.5 639.5,614.5C 426.167,614.5 212.833,614.5 -0.5,614.5C -0.5,409.5 -0.5,204.5 -0.5,-0.5 Z"/></g>
<g><path style="opacity:1" fill="#295ead" d="M 299.5,19.5 C 378.905,15.4747 445.405,42.4747 499,100.5C 553.26,165.442 569.927,239.108 549,321.5C 538.645,357.897 520.811,389.897 495.5,417.5C 491.849,414.349 488.349,411.016 485,407.5C 484.333,406.5 484.333,405.5 485,404.5C 527.765,354.863 546.098,297.196 540,231.5C 527.013,147.865 482.18,88.3652 405.5,53C 319.182,20.6179 240.848,33.9512 170.5,93C 108.47,153.103 86.3036,225.603 104,310.5C 113.458,346.047 129.958,377.714 153.5,405.5C 151.108,410.225 147.441,413.558 142.5,415.5C 119.019,390.562 102.186,361.562 92,328.5C 65.3696,227.484 90.8696,142.318 168.5,73C 206.846,42.1619 250.513,24.3286 299.5,19.5 Z"/></g>
<g><path style="opacity:1" fill="#211c1d" d="M 272.5,224.5 C 273.952,225.302 275.618,225.802 277.5,226C 267.172,226.5 256.839,226.666 246.5,226.5C 248.683,224.766 251.35,223.766 254.5,223.5C 255.584,222.335 256.417,221.002 257,219.5C 257.667,199.833 257.667,180.167 257,160.5C 255.055,156.61 251.888,154.943 247.5,155.5C 258.988,154.505 270.655,154.172 282.5,154.5C 297.231,154.724 304.064,162.058 303,176.5C 300.748,184.914 295.248,189.581 286.5,190.5C 286.351,191.552 286.517,192.552 287,193.5C 293.898,203.454 301.398,212.954 309.5,222C 318.703,226.99 325.536,224.823 330,215.5C 338.559,194.058 347.892,173.058 358,152.5C 359.477,153.444 360.477,154.777 361,156.5C 369.448,178.064 378.448,199.397 388,220.5C 390.408,222.956 393.241,224.789 396.5,226C 387.167,226.667 377.833,226.667 368.5,226C 370.5,225 372.5,224 374.5,223C 375.097,221.938 375.43,220.772 375.5,219.5C 374.069,213.968 372.069,208.634 369.5,203.5C 359.606,202.182 349.773,202.182 340,203.5C 337.565,208.472 335.732,213.639 334.5,219C 334.354,221.034 335.02,222.701 336.5,224C 338.577,224.192 340.577,224.692 342.5,225.5C 328.178,226.666 313.845,226.833 299.5,226C 291.307,215.307 283.307,204.474 275.5,193.5C 272.914,192.52 270.247,192.187 267.5,192.5C 267.334,201.839 267.5,211.173 268,220.5C 268.748,222.751 270.248,224.084 272.5,224.5 Z"/></g>
<g><path style="opacity:1" fill="#241f20" d="M 431.5,152.5 C 440.702,151.624 449.536,152.958 458,156.5C 460.656,155.316 463.156,153.983 465.5,152.5C 465.608,160.631 465.608,168.631 465.5,176.5C 459.275,158.888 447.275,152.722 429.5,158C 421.002,163.513 416.169,171.346 415,181.5C 413.74,190.769 414.74,199.769 418,208.5C 424.673,221.249 435.173,226.082 449.5,223C 456.309,220.528 461.643,216.195 465.5,210C 466.332,209.312 466.998,209.479 467.5,210.5C 459.078,225.207 446.412,231.04 429.5,228C 414.721,223.552 405.887,213.719 403,198.5C 400.617,175.567 410.117,160.234 431.5,152.5 Z"/></g>
<g><path style="opacity:1" fill="#504c4d" d="M 212.5,154.5 C 199.323,154.171 186.323,154.505 173.5,155.5C 172.957,155.44 172.624,155.107 172.5,154.5C 185.994,153.175 199.327,153.175 212.5,154.5 Z"/></g>
<g><path style="opacity:1" fill="#4d494a" d="M 282.5,154.5 C 270.655,154.172 258.988,154.505 247.5,155.5C 246.957,155.44 246.624,155.107 246.5,154.5C 258.66,153.175 270.66,153.175 282.5,154.5 Z"/></g>
<g><path style="opacity:1" fill="#211c1d" d="M 173.5,155.5 C 186.323,154.505 199.323,154.171 212.5,154.5C 225.118,154.627 232.785,160.793 235.5,173C 234.546,180.751 230.546,186.251 223.5,189.5C 236.1,193.039 240.6,201.039 237,213.5C 231.942,222.617 224.108,226.95 213.5,226.5C 200.163,226.667 186.829,226.5 173.5,226C 175.382,225.802 177.048,225.302 178.5,224.5C 180.708,223.977 182.208,222.644 183,220.5C 183.667,200.167 183.667,179.833 183,159.5C 180.592,156.38 177.426,155.047 173.5,155.5 Z"/></g>
<g><path style="opacity:1" fill="#f8f8f8" d="M 194.5,157.5 C 200.176,157.334 205.843,157.501 211.5,158C 222.665,161.834 226.165,169.334 222,180.5C 219.221,184.491 215.388,186.658 210.5,187C 205.167,187.667 199.833,187.667 194.5,187C 193.179,177.167 193.179,167.333 194.5,157.5 Z"/></g>
<g><path style="opacity:1" fill="#fafafa" d="M 269.5,157.5 C 287.724,156.349 294.224,164.349 289,181.5C 283.185,187.586 276.018,190.253 267.5,189.5C 266.893,178.577 267.56,167.91 269.5,157.5 Z"/></g>
<g><path style="opacity:1" fill="#f9f9f9" d="M 354.5,169.5 C 359.291,178.67 363.625,188.17 367.5,198C 359.147,198.832 350.813,198.665 342.5,197.5C 346.701,188.225 350.701,178.891 354.5,169.5 Z"/></g>
<g><path style="opacity:1" fill="#fafafa" d="M 193.5,191.5 C 199.842,191.334 206.175,191.5 212.5,192C 224.849,195.861 228.682,203.694 224,215.5C 221.736,218.433 218.902,220.6 215.5,222C 208.5,222.667 201.5,222.667 194.5,222C 193.514,211.916 193.181,201.749 193.5,191.5 Z"/></g>
<g><path style="opacity:1" fill="#969495" d="M 178.5,224.5 C 177.048,225.302 175.382,225.802 173.5,226C 186.829,226.5 200.163,226.667 213.5,226.5C 200.01,227.496 186.344,227.829 172.5,227.5C 172.5,226.5 172.5,225.5 172.5,224.5C 174.5,224.5 176.5,224.5 178.5,224.5 Z"/></g>
<g><path style="opacity:1" fill="#8c8a8a" d="M 272.5,224.5 C 274.5,224.5 276.5,224.5 278.5,224.5C 278.5,225.5 278.5,226.5 278.5,227.5C 267.654,227.828 256.987,227.494 246.5,226.5C 256.839,226.666 267.172,226.5 277.5,226C 275.618,225.802 273.952,225.302 272.5,224.5 Z"/></g>
<g><path style="opacity:1" fill="#828080" d="M 141.5,259.5 C 137.5,258.167 133.5,258.167 129.5,259.5C 128.022,259.762 126.689,259.429 125.5,258.5C 131.833,257.167 138.167,257.167 144.5,258.5C 143.675,259.386 142.675,259.719 141.5,259.5 Z"/></g>
<g><path style="opacity:1" fill="#7f7d7d" d="M 184.5,258.5 C 180.958,258.187 177.625,258.521 174.5,259.5C 172.833,259.5 171.167,259.5 169.5,259.5C 166.5,258.167 163.5,258.167 160.5,259.5C 159.325,259.719 158.325,259.386 157.5,258.5C 166.658,257.178 175.658,257.178 184.5,258.5 Z"/></g>
<g><path style="opacity:1" fill="#817f7f" d="M 216.5,259.5 C 213.833,258.167 211.167,258.167 208.5,259.5C 207.022,259.762 205.689,259.429 204.5,258.5C 209.833,257.167 215.167,257.167 220.5,258.5C 219.311,259.429 217.978,259.762 216.5,259.5 Z"/></g>
<g><path style="opacity:1" fill="#827f80" d="M 238.5,259.5 C 234.167,258.167 229.833,258.167 225.5,259.5C 224.325,259.719 223.325,259.386 222.5,258.5C 228.833,257.167 235.167,257.167 241.5,258.5C 240.675,259.386 239.675,259.719 238.5,259.5 Z"/></g>
<g><path style="opacity:1" fill="#858383" d="M 260.5,259.5 C 255.167,258.167 249.833,258.167 244.5,259.5C 243.957,259.44 243.624,259.107 243.5,258.5C 249.5,257.167 255.5,257.167 261.5,258.5C 261.376,259.107 261.043,259.44 260.5,259.5 Z"/></g>
<g><path style="opacity:1" fill="#848282" d="M 289.5,258.5 C 285.298,258.183 281.298,258.517 277.5,259.5C 276.957,259.44 276.624,259.107 276.5,258.5C 280.984,257.189 285.317,257.189 289.5,258.5 Z"/></g>
<g><path style="opacity:1" fill="#858383" d="M 325.5,258.5 C 315.319,258.173 305.319,258.506 295.5,259.5C 294.022,259.762 292.689,259.429 291.5,258.5C 302.993,257.176 314.326,257.176 325.5,258.5 Z"/></g>
<g><path style="opacity:1" fill="#8a8888" d="M 354.5,258.5 C 347.978,258.177 341.645,258.51 335.5,259.5C 334.022,259.762 332.689,259.429 331.5,258.5C 339.323,257.18 346.99,257.18 354.5,258.5 Z"/></g>
<g><path style="opacity:1" fill="#242021" d="M 403.5,258.5 C 404.833,262.167 404.833,265.833 403.5,269.5C 401.442,261.8 396.442,258.633 388.5,260C 383.669,263.648 383.335,267.648 387.5,272C 395.034,275.169 401.534,279.669 407,285.5C 409.226,294.244 406.06,299.744 397.5,302C 392.569,302.613 387.736,302.113 383,300.5C 381.674,300.755 380.674,301.422 380,302.5C 379.333,297.5 379.333,292.5 380,287.5C 381.832,296.653 387.332,300.82 396.5,300C 402.331,297.828 403.831,293.995 401,288.5C 395.585,284.875 390.085,281.375 384.5,278C 379.847,274.212 378.347,269.378 380,263.5C 386.082,257.073 393.249,255.74 401.5,259.5C 402.416,259.457 403.083,259.124 403.5,258.5 Z"/></g>
<g><path style="opacity:1" fill="#686566" d="M 403.5,258.5 C 403.56,257.957 403.893,257.624 404.5,257.5C 405.833,262.5 405.833,267.5 404.5,272.5C 403.614,271.675 403.281,270.675 403.5,269.5C 404.833,265.833 404.833,262.167 403.5,258.5 Z"/></g>
<g><path style="opacity:1" fill="#828080" d="M 428.5,259.5 C 424.5,258.167 420.5,258.167 416.5,259.5C 415.325,259.719 414.325,259.386 413.5,258.5C 419.833,257.167 426.167,257.167 432.5,258.5C 431.311,259.429 429.978,259.762 428.5,259.5 Z"/></g>
<g><path style="opacity:1" fill="#838181" d="M 490.5,259.5 C 485.5,258.167 480.5,258.167 475.5,259.5C 474.957,259.44 474.624,259.107 474.5,258.5C 480.833,257.167 487.167,257.167 493.5,258.5C 492.675,259.386 491.675,259.719 490.5,259.5 Z"/></g>
<g><path style="opacity:1" fill="#7f7d7d" d="M 518.5,259.5 C 514.833,258.167 511.167,258.167 507.5,259.5C 506.624,259.631 505.957,259.298 505.5,258.5C 510.5,257.167 515.5,257.167 520.5,258.5C 520.043,259.298 519.376,259.631 518.5,259.5 Z"/></g>
<g><path style="opacity:1" fill="#252021" d="M 129.5,259.5 C 133.5,258.167 137.5,258.167 141.5,259.5C 140.542,259.953 139.708,260.619 139,261.5C 138.333,271.5 138.333,281.5 139,291.5C 140.373,296.938 143.873,299.605 149.5,299.5C 156.529,300.082 161.029,297.082 163,290.5C 163.667,280.833 163.667,271.167 163,261.5C 162.292,260.619 161.458,259.953 160.5,259.5C 163.5,258.167 166.5,258.167 169.5,259.5C 168.542,259.953 167.708,260.619 167,261.5C 166.667,270.833 166.333,280.167 166,289.5C 163.989,298.773 158.155,303.107 148.5,302.5C 141.988,302.828 137.155,300.162 134,294.5C 132.76,283.558 132.093,272.558 132,261.5C 131.292,260.619 130.458,259.953 129.5,259.5 Z"/></g>
<g><path style="opacity:1" fill="#221e1f" d="M 174.5,259.5 C 177.625,258.521 180.958,258.187 184.5,258.5C 193.469,268.977 202.302,279.644 211,290.5C 211.667,280.833 211.667,271.167 211,261.5C 210.292,260.619 209.458,259.953 208.5,259.5C 211.167,258.167 213.833,258.167 216.5,259.5C 215.542,259.953 214.708,260.619 214,261.5C 213.667,275.167 213.333,288.833 213,302.5C 203.333,290.833 193.667,279.167 184,267.5C 183.333,277.833 183.333,288.167 184,298.5C 185.826,300.074 187.993,300.907 190.5,301C 185.167,301.667 179.833,301.667 174.5,301C 177.319,300.932 179.486,299.766 181,297.5C 181.667,286.167 181.667,274.833 181,263.5C 179.362,261.266 177.195,259.933 174.5,259.5 Z"/></g>
<g><path style="opacity:1" fill="#262122" d="M 225.5,259.5 C 229.833,258.167 234.167,258.167 238.5,259.5C 236.589,259.574 235.422,260.574 235,262.5C 234.333,274.167 234.333,285.833 235,297.5C 236.325,299.993 238.491,301.16 241.5,301C 235.167,301.667 228.833,301.667 222.5,301C 224.676,300.837 226.509,300.004 228,298.5C 228.667,285.833 228.667,273.167 228,260.5C 227.329,259.748 226.496,259.414 225.5,259.5 Z"/></g>
<g><path style="opacity:1" fill="#252122" d="M 244.5,259.5 C 249.833,258.167 255.167,258.167 260.5,259.5C 256.929,259.408 255.762,261.074 257,264.5C 261,273.833 265,283.167 269,292.5C 272.943,283.614 276.61,274.614 280,265.5C 280.667,263.833 280.667,262.167 280,260.5C 279.329,259.748 278.496,259.414 277.5,259.5C 281.298,258.517 285.298,258.183 289.5,258.5C 287.239,259.59 285.406,261.256 284,263.5C 278.589,276.575 273.089,289.575 267.5,302.5C 260.856,289.078 254.69,275.411 249,261.5C 247.67,260.418 246.17,259.751 244.5,259.5 Z"/></g>
<g><path style="opacity:1" fill="#262223" d="M 295.5,259.5 C 305.319,258.506 315.319,258.173 325.5,258.5C 325.665,261.518 325.498,264.518 325,267.5C 324.484,264.966 323.317,262.8 321.5,261C 315.843,260.501 310.176,260.334 304.5,260.5C 304.5,266.167 304.5,271.833 304.5,277.5C 308.846,277.666 313.179,277.499 317.5,277C 319.538,275.764 320.705,273.931 321,271.5C 321.667,276.5 321.667,281.5 321,286.5C 320.837,284.324 320.004,282.491 318.5,281C 313.845,280.501 309.179,280.334 304.5,280.5C 304.19,286.758 304.524,292.924 305.5,299C 310.5,299.667 315.5,299.667 320.5,299C 323.667,297.167 326.167,294.667 328,291.5C 327.81,294.585 326.976,297.585 325.5,300.5C 314.181,301.666 302.848,301.832 291.5,301C 294.319,300.932 296.486,299.766 298,297.5C 298.667,285.5 298.667,273.5 298,261.5C 297.292,260.619 296.458,259.953 295.5,259.5 Z"/></g>
<g><path style="opacity:1" fill="#221d1e" d="M 335.5,259.5 C 341.645,258.51 347.978,258.177 354.5,258.5C 364.655,260.172 367.822,265.839 364,275.5C 361.592,277.956 358.759,279.789 355.5,281C 359.122,285.745 362.622,290.578 366,295.5C 368.626,298.231 371.793,300.064 375.5,301C 371.5,301.667 367.5,301.667 363.5,301C 358.965,295.431 354.799,289.597 351,283.5C 349.211,281.771 347.044,281.104 344.5,281.5C 344.334,287.176 344.501,292.843 345,298.5C 346.491,300.004 348.324,300.837 350.5,301C 344.5,301.667 338.5,301.667 332.5,301C 335.191,301.054 337.024,299.887 338,297.5C 338.667,285.5 338.667,273.5 338,261.5C 337.292,260.619 336.458,259.953 335.5,259.5 Z"/></g>
<g><path style="opacity:1" fill="#1f1a1b" d="M 416.5,259.5 C 420.5,258.167 424.5,258.167 428.5,259.5C 427.542,259.953 426.708,260.619 426,261.5C 425.333,273.833 425.333,286.167 426,298.5C 427.491,300.004 429.324,300.837 431.5,301C 425.5,301.667 419.5,301.667 413.5,301C 416.191,301.054 418.024,299.887 419,297.5C 419.833,285.153 419.666,272.82 418.5,260.5C 417.817,260.137 417.15,259.804 416.5,259.5 Z"/></g>
<g><path style="opacity:1" fill="#241f20" d="M 471.5,258.5 C 471.806,261.385 471.473,264.052 470.5,266.5C 470.249,264.83 469.582,263.33 468.5,262C 464.605,260.734 460.605,260.234 456.5,260.5C 456.333,273.171 456.5,285.838 457,298.5C 458.491,300.004 460.324,300.837 462.5,301C 456.5,301.667 450.5,301.667 444.5,301C 446.676,300.837 448.509,300.004 450,298.5C 450.5,285.838 450.667,273.171 450.5,260.5C 442.824,258.372 437.99,261.038 436,268.5C 435.502,265.183 435.335,261.85 435.5,258.5C 447.5,258.5 459.5,258.5 471.5,258.5 Z"/></g>
<g><path style="opacity:1" fill="#241f20" d="M 475.5,259.5 C 480.5,258.167 485.5,258.167 490.5,259.5C 488.623,260.659 488.123,262.326 489,264.5C 492.02,269.887 495.52,274.887 499.5,279.5C 502.914,275.006 506.081,270.34 509,265.5C 509.941,263.011 509.441,261.011 507.5,259.5C 511.167,258.167 514.833,258.167 518.5,259.5C 516.284,260.203 514.451,261.536 513,263.5C 508.75,269.665 504.75,275.998 501,282.5C 500.333,287.833 500.333,293.167 501,298.5C 502.491,300.004 504.324,300.837 506.5,301C 500.5,301.667 494.5,301.667 488.5,301C 491.191,301.054 493.024,299.887 494,297.5C 494.667,292.833 494.667,288.167 494,283.5C 489.333,276.167 484.667,268.833 480,261.5C 478.67,260.418 477.17,259.751 475.5,259.5 Z"/></g>
<g><path style="opacity:1" fill="#f9f9f9" d="M 344.5,260.5 C 357.699,259.595 361.366,264.928 355.5,276.5C 352.103,278.522 348.436,279.522 344.5,279.5C 344.5,273.167 344.5,266.833 344.5,260.5 Z"/></g>
<g><path style="opacity:1" fill="#848182" d="M 471.5,258.5 C 472.806,261.687 472.806,265.02 471.5,268.5C 470.702,268.043 470.369,267.376 470.5,266.5C 471.473,264.052 471.806,261.385 471.5,258.5 Z"/></g>
<g><path style="opacity:1" fill="#285dac" d="M 173.5,321.5 C 228.756,333.128 277.423,357.461 319.5,394.5C 360.604,356.947 408.604,332.614 463.5,321.5C 465.453,327.074 466.12,333.074 465.5,339.5C 414.911,350.542 370.744,373.542 333,408.5C 332.667,413.167 332.333,417.833 332,422.5C 331.692,423.308 331.192,423.975 330.5,424.5C 323.217,425.632 315.883,425.799 308.5,425C 308,424.5 307.5,424 307,423.5C 306.667,418.833 306.333,414.167 306,409.5C 267.627,374.226 222.793,350.893 171.5,339.5C 170.88,333.074 171.547,327.074 173.5,321.5 Z"/></g>
<g><path style="opacity:1" fill="#7e9fce" d="M 463.5,321.5 C 464.209,320.596 465.209,320.263 466.5,320.5C 466.823,327.022 466.49,333.355 465.5,339.5C 466.12,333.074 465.453,327.074 463.5,321.5 Z"/></g>
<g><path style="opacity:1" fill="#9db6da" d="M 173.5,321.5 C 171.547,327.074 170.88,333.074 171.5,339.5C 170.51,333.355 170.177,327.022 170.5,320.5C 171.791,320.263 172.791,320.596 173.5,321.5 Z"/></g>
<g><path style="opacity:1" fill="#757272" d="M 463.5,375.5 C 464.209,374.596 465.209,374.263 466.5,374.5C 466.823,381.022 466.49,387.355 465.5,393.5C 466.12,387.074 465.453,381.074 463.5,375.5 Z"/></g>
<g><path style="opacity:1" fill="#201b1c" d="M 463.5,375.5 C 465.453,381.074 466.12,387.074 465.5,393.5C 414.788,404.771 370.288,427.771 332,462.5C 331.807,467.75 331.307,472.917 330.5,478C 322.812,478.831 315.145,478.665 307.5,477.5C 306.881,472.518 306.214,467.518 305.5,462.5C 278.479,437.353 247.479,418.52 212.5,406C 199.238,401.519 185.905,397.353 172.5,393.5C 171.336,387.193 171.169,380.859 172,374.5C 227.901,385.95 276.901,410.616 319,448.5C 350.176,420.376 385.676,399.209 425.5,385C 437.981,380.88 450.648,377.713 463.5,375.5 Z"/></g>
<g><path style="opacity:1" fill="#a9abaf" d="M 171.5,427.5 C 227.592,438.547 276.925,462.88 319.5,500.5C 355.935,466.976 398.268,443.81 446.5,431C 452.814,429.637 459.147,428.47 465.5,427.5C 465.5,433.5 465.5,439.5 465.5,445.5C 414.822,456.669 370.489,479.669 332.5,514.5C 331.671,519.467 331.171,524.467 331,529.5C 330.5,530 330,530.5 329.5,531C 322.5,531.667 315.5,531.667 308.5,531C 307.874,530.25 307.374,529.416 307,528.5C 306.667,524.167 306.333,519.833 306,515.5C 275.711,486.928 240.544,466.428 200.5,454C 191.256,451.022 181.923,448.356 172.5,446C 171.524,439.924 171.19,433.758 171.5,427.5 Z"/></g>
</svg>
