<?xml version="1.0" encoding="UTF-8"?>
<!DOCTYPE svg PUBLIC "-//W3C//DTD SVG 1.1//EN" "http://www.w3.org/Graphics/SVG/1.1/DTD/svg11.dtd">
<svg xmlns="http://www.w3.org/2000/svg" version="1.1" width="259px" height="194px" style="shape-rendering:geometricPrecision; text-rendering:geometricPrecision; image-rendering:optimizeQuality; fill-rule:evenodd; clip-rule:evenodd" xmlns:xlink="http://www.w3.org/1999/xlink">
<g><path style="opacity:1" fill="#fefefe" d="M -0.5,-0.5 C 85.8333,-0.5 172.167,-0.5 258.5,-0.5C 258.5,64.1667 258.5,128.833 258.5,193.5C 172.167,193.5 85.8333,193.5 -0.5,193.5C -0.5,128.833 -0.5,64.1667 -0.5,-0.5 Z"/></g>
<g><path style="opacity:1" fill="#fa8a1d" d="M 117.5,78.5 C 118.5,78.5 119.5,78.5 120.5,78.5C 120.5,87.5 120.5,96.5 120.5,105.5C 119.5,105.5 118.5,105.5 117.5,105.5C 117.5,96.5 117.5,87.5 117.5,78.5 Z"/></g>
<g><path style="opacity:1" fill="#337dc8" d="M 130.5,78.5 C 131.5,78.5 132.5,78.5 133.5,78.5C 133.5,87.5 133.5,96.5 133.5,105.5C 132.5,105.5 131.5,105.5 130.5,105.5C 130.5,96.5 130.5,87.5 130.5,78.5 Z"/></g>
<g><path style="opacity:1" fill="#f88617" d="M 66.5,80.5 C 67.5,80.5 68.5,80.5 69.5,80.5C 69.5,81.5 69.5,82.5 69.5,83.5C 68.5,83.5 67.5,83.5 66.5,83.5C 66.5,82.5 66.5,81.5 66.5,80.5 Z"/></g>
<g><path style="opacity:1" fill="#faa25b" d="M 68.5,87.5 C 69.4896,93.31 69.8229,99.31 69.5,105.5C 68.209,105.737 67.209,105.404 66.5,104.5C 68.45,99.2649 69.1167,93.5982 68.5,87.5 Z"/></g>
<g><path style="opacity:1" fill="#f88300" d="M 68.5,87.5 C 69.1167,93.5982 68.45,99.2649 66.5,104.5C 65.8833,98.4018 66.55,92.7351 68.5,87.5 Z"/></g>
<g><path style="opacity:1" fill="#aec6e4" d="M 172.5,87.5 C 172.171,93.2055 172.505,98.8722 173.5,104.5C 174.167,100.353 174.834,96.3525 175.5,92.5C 175.5,96.8333 175.5,101.167 175.5,105.5C 174.167,105.5 172.833,105.5 171.5,105.5C 171.177,99.31 171.51,93.31 172.5,87.5 Z"/></g>
<g><path style="opacity:1" fill="#1672c5" d="M 172.5,87.5 C 173.735,87.7214 174.735,88.3881 175.5,89.5C 177.276,87.5532 179.276,87.2199 181.5,88.5C 179.099,89.3576 177.099,90.691 175.5,92.5C 174.834,96.3525 174.167,100.353 173.5,104.5C 172.505,98.8722 172.171,93.2055 172.5,87.5 Z"/></g>
<g><path style="opacity:1" fill="#f8861b" d="M 72.5,87.5 C 73.7498,87.5774 74.5831,88.244 75,89.5C 78.9434,86.6342 82.6101,86.9676 86,90.5C 88.5594,87.6508 91.7261,86.8175 95.5,88C 96.1258,88.7504 96.6258,89.5838 97,90.5C 97.4992,95.1548 97.6658,99.8215 97.5,104.5C 96.5,104.5 95.5,104.5 94.5,104.5C 94.6658,99.8215 94.4992,95.1548 94,90.5C 90.8223,88.833 88.3223,89.4997 86.5,92.5C 86.1307,96.7675 85.1307,100.768 83.5,104.5C 83.6657,100.154 83.499,95.8206 83,91.5C 80.0337,88.7348 77.367,89.0682 75,92.5C 74.5012,96.4862 74.3345,100.486 74.5,104.5C 72.55,99.2649 71.8833,93.5982 72.5,87.5 Z"/></g>
<g><path style="opacity:1" fill="#f8851c" d="M 55.5,87.5 C 58.5,87.5 61.5,87.5 64.5,87.5C 64.719,88.675 64.3857,89.675 63.5,90.5C 60.1611,88.7652 57.4944,89.4318 55.5,92.5C 57.2529,94.6999 59.5862,95.8666 62.5,96C 66.3007,101.998 64.634,105.164 57.5,105.5C 54.8183,105.923 53.6517,104.923 54,102.5C 57.4572,104.232 60.2906,103.566 62.5,100.5C 62.0233,99.5224 61.3567,98.6891 60.5,98C 53.3248,97.0986 51.6581,93.5986 55.5,87.5 Z"/></g>
<g><path style="opacity:1" fill="#f98311" d="M 104.5,104.5 C 104.44,103.957 104.107,103.624 103.5,103.5C 102.513,106.768 102.18,110.102 102.5,113.5C 101.175,109.555 100.508,105.222 100.5,100.5C 100.833,96.1667 101.167,91.8333 101.5,87.5C 105.518,87.1164 109.518,87.6164 113.5,89C 115.456,92.5946 115.956,96.428 115,100.5C 112.695,105.072 109.195,106.405 104.5,104.5 Z"/></g>
<g><path style="opacity:1" fill="#fef5ed" d="M 105.5,89.5 C 108.547,88.8554 110.713,89.8554 112,92.5C 112.667,95.1667 112.667,97.8333 112,100.5C 106.469,105.151 103.303,103.818 102.5,96.5C 102.006,93.3424 103.006,91.0091 105.5,89.5 Z"/></g>
<g><path style="opacity:1" fill="#fbb990" d="M 72.5,87.5 C 71.8833,93.5982 72.55,99.2649 74.5,104.5C 73.791,105.404 72.791,105.737 71.5,105.5C 71.1771,99.31 71.5104,93.31 72.5,87.5 Z"/></g>
<g><path style="opacity:1" fill="#fba864" d="M 86.5,92.5 C 86.5,96.8333 86.5,101.167 86.5,105.5C 85.209,105.737 84.209,105.404 83.5,104.5C 85.1307,100.768 86.1307,96.7675 86.5,92.5 Z"/></g>
<g><path style="opacity:1" fill="#a1c0e1" d="M 167.5,90.5 C 168.487,95.3054 168.821,100.305 168.5,105.5C 167.209,105.737 166.209,105.404 165.5,104.5C 167.436,100.285 168.103,95.6186 167.5,90.5 Z"/></g>
<g><path style="opacity:1" fill="#2376c5" d="M 183.5,87.5 C 184.735,87.7214 185.735,88.3881 186.5,89.5C 189.468,87.3382 192.634,87.0048 196,88.5C 197.404,94.0438 197.904,99.7104 197.5,105.5C 196.5,105.5 195.5,105.5 194.5,105.5C 194.666,100.489 194.499,95.4889 194,90.5C 190.794,88.8756 188.128,89.5422 186,92.5C 185.827,96.5408 185.327,100.541 184.5,104.5C 183.505,98.8722 183.171,93.2055 183.5,87.5 Z"/></g>
<g><path style="opacity:1" fill="#f88723" d="M 124.5,91.5 C 125.5,91.5 126.5,91.5 127.5,91.5C 127.5,92.5 127.5,93.5 127.5,94.5C 126.5,94.5 125.5,94.5 124.5,94.5C 124.5,93.5 124.5,92.5 124.5,91.5 Z"/></g>
<g><path style="opacity:1" fill="#2a79c6" d="M 141.5,87.5 C 148.62,86.2862 151.953,89.2862 151.5,96.5C 147.5,96.5 143.5,96.5 139.5,96.5C 139.383,98.4835 140.05,100.15 141.5,101.5C 144.788,103.358 148.121,104.025 151.5,103.5C 151.291,104.086 150.957,104.586 150.5,105C 140.22,107.053 135.72,102.887 137,92.5C 138.059,90.3408 139.559,88.6741 141.5,87.5 Z"/></g>
<g><path style="opacity:1" fill="#f1f7f9" d="M 142.5,89.5 C 146.349,89.0193 148.349,90.686 148.5,94.5C 145.428,94.8174 142.428,94.4841 139.5,93.5C 140.524,92.1482 141.524,90.8149 142.5,89.5 Z"/></g>
<g><path style="opacity:1" fill="#2576c5" d="M 167.5,90.5 C 168.103,95.6186 167.436,100.285 165.5,104.5C 165.565,104.062 165.399,103.728 165,103.5C 161.667,106.167 158.333,106.167 155,103.5C 154.231,100.901 154.398,98.4009 155.5,96C 158.688,94.6842 162.022,94.1842 165.5,94.5C 165.208,90.996 163.208,89.3293 159.5,89.5C 156.585,91.2421 155.251,90.5754 155.5,87.5C 158.518,87.3354 161.518,87.502 164.5,88C 165.942,88.3768 166.942,89.2101 167.5,90.5 Z"/></g>
<g><path style="opacity:1" fill="#e8eff6" d="M 158.5,96.5 C 160.591,96.3184 162.591,96.6518 164.5,97.5C 165.833,98.8333 165.833,100.167 164.5,101.5C 161.112,104.484 158.445,103.984 156.5,100C 156.978,98.6974 157.645,97.5307 158.5,96.5 Z"/></g>
<g><path style="opacity:1" fill="#fba864" d="M 124.5,99.5 C 125.209,98.596 126.209,98.2627 127.5,98.5C 127.5,104.5 127.5,110.5 127.5,116.5C 126.209,116.737 125.209,116.404 124.5,115.5C 125.812,113.257 126.478,110.59 126.5,107.5C 126.478,104.41 125.812,101.743 124.5,99.5 Z"/></g>
<g><path style="opacity:1" fill="#fa8100" d="M 124.5,99.5 C 125.812,101.743 126.478,104.41 126.5,107.5C 126.478,110.59 125.812,113.257 124.5,115.5C 124.5,110.167 124.5,104.833 124.5,99.5 Z"/></g>
<g><path style="opacity:1" fill="#fab988" d="M 104.5,104.5 C 103.833,107.5 103.167,110.5 102.5,113.5C 102.18,110.102 102.513,106.768 103.5,103.5C 104.107,103.624 104.44,103.957 104.5,104.5 Z"/></g>
</svg>
