<svg version="1.1" id="Layer_1" xmlns="http://www.w3.org/2000/svg" xmlns:xlink="http://www.w3.org/1999/xlink" x="0px" y="0px"
	 width="100%" viewBox="0 0 361 240" enable-background="new 0 0 361 240" xml:space="preserve">
<path fill="#FDFDFE" opacity="1.000000" stroke="none" 
	d="
M258.000000,241.000000 
	C172.035568,241.000000 86.571121,241.000000 1.053342,241.000000 
	C1.053342,161.068863 1.053342,81.137688 1.053342,1.103252 
	C121.214371,1.103252 241.428848,1.103252 361.821655,1.103252 
	C361.821655,80.999672 361.821655,160.999802 361.821655,241.000000 
	C327.471130,241.000000 292.985565,241.000000 258.000000,241.000000 
M176.804642,112.566254 
	C175.215622,113.998466 173.626602,115.430679 172.085464,116.819733 
	C172.224167,113.993431 172.412598,111.492935 172.295151,109.006889 
	C172.288544,108.867302 169.762436,108.846741 168.676666,108.785797 
	C167.617325,114.465553 166.677032,119.507072 165.736740,124.548584 
	C166.242752,124.800064 166.748764,125.051544 167.254776,125.303032 
	C172.644379,123.031128 174.059723,116.743370 178.903839,112.918030 
	C182.478256,111.673309 186.052673,110.428581 189.627090,109.183861 
	C189.403046,108.613876 189.178986,108.043892 188.954941,107.473907 
	C183.994873,105.953865 180.551270,108.696930 176.804642,112.566254 
M130.019165,109.122505 
	C130.032135,104.129021 130.045105,99.135544 130.975159,93.976730 
	C143.342545,93.976730 155.709930,93.976730 168.077301,93.976730 
	C168.075317,93.081367 168.073318,92.186005 168.071335,91.290642 
	C155.465973,91.290642 142.860611,91.290642 130.034363,90.522491 
	C129.880417,88.501793 129.726456,86.481094 129.566208,84.377831 
	C127.376564,84.225311 125.626434,84.103409 123.742165,83.054527 
	C123.742165,74.622803 123.742165,66.191071 123.742165,57.421982 
	C138.903259,57.421982 153.361801,57.421982 167.989838,57.421982 
	C167.989838,47.337246 167.989838,37.612446 167.989838,27.870605 
	C125.138535,27.870605 82.609612,27.870605 40.003315,27.870605 
	C39.923515,28.924608 39.830429,29.580994 39.830315,30.237398 
	C39.822601,75.397514 39.746151,120.558075 40.001656,165.716736 
	C40.017807,168.571289 41.937798,172.298965 44.192329,174.043335 
	C47.329582,176.470718 51.504150,178.325058 55.437241,178.822083 
	C71.609818,180.865814 87.807518,182.526489 102.982887,189.129654 
	C103.727440,189.453644 104.811859,189.197662 105.686127,188.991577 
	C115.519287,186.673828 125.315834,184.194077 135.176147,182.000275 
	C143.405182,180.169403 151.871201,179.219177 159.923798,176.836456 
	C166.726990,174.823425 168.824371,170.312012 167.585236,163.502029 
	C153.139023,163.502029 138.582047,163.502029 123.914932,163.502029 
	C123.914932,154.298462 123.914932,145.653030 124.779724,136.934219 
	C126.334320,136.840012 127.888916,136.745804 129.584305,136.643066 
	C129.836533,134.115097 130.055832,131.917145 131.157867,129.552933 
	C143.491562,129.480713 155.825272,129.408493 168.158966,129.336273 
	C168.145691,128.493317 168.132416,127.650360 168.119156,126.807404 
	C155.434174,126.807404 142.749191,126.807404 130.053787,125.897301 
	C130.025864,120.620972 129.997955,115.344643 130.019165,109.122505 
M327.138580,107.577011 
	C325.316528,108.330437 323.356110,108.859695 321.700134,109.882118 
	C317.770935,112.308044 315.841614,115.986160 317.253448,120.472794 
	C318.572388,124.664383 322.381287,125.269264 326.231781,125.038406 
	C335.038513,124.510376 341.860901,120.145485 347.556488,113.734406 
	C347.825500,113.431580 347.591034,112.681450 347.591034,111.465210 
	C346.099365,112.729599 345.132111,113.568344 344.144958,114.383026 
	C339.242493,118.429070 334.150330,122.119255 327.426636,122.239922 
	C324.591766,122.290794 321.984314,121.815620 322.857086,117.983391 
	C325.437775,117.511314 328.091034,117.275024 330.581238,116.508842 
	C333.863068,115.499077 338.198517,114.268387 336.798401,109.854897 
	C335.509491,105.792015 331.372101,106.569283 327.138580,107.577011 
M146.763031,102.719322 
	C150.799194,103.102798 154.835373,103.486275 159.709534,103.949371 
	C159.228470,103.266930 158.480331,101.195732 157.607956,101.142006 
	C153.727615,100.903061 149.811676,101.241684 145.147141,101.510498 
	C141.371628,104.325821 136.967941,106.605446 133.988342,110.099495 
	C130.672791,113.987503 131.713043,119.337059 135.027069,122.302444 
	C140.188843,126.921196 154.574631,125.525124 158.922836,119.938530 
	C159.123154,119.681160 158.830750,119.040298 158.829590,119.031723 
	C155.045502,120.217262 151.365341,122.072998 147.579391,122.322258 
	C144.813629,122.504364 140.710724,121.367493 139.384659,119.370468 
	C137.900101,117.134758 137.900925,112.843964 139.038574,110.220787 
	C140.307449,107.294968 143.581787,105.238884 146.763031,102.719322 
M194.896759,118.035759 
	C197.475098,117.554604 200.123047,117.300308 202.614532,116.536011 
	C205.872696,115.536491 210.338074,114.381531 209.163177,110.089859 
	C207.941681,105.627914 203.521057,106.691460 199.151672,107.622620 
	C191.576920,109.935005 187.657089,114.976654 189.353012,120.225533 
	C190.864365,124.903152 196.621140,126.403740 204.111221,124.070160 
	C204.587357,123.921814 205.080750,123.803848 205.527817,123.591209 
	C208.607788,122.126282 211.677582,120.639938 214.748734,119.161385 
	C218.105560,126.029587 220.941071,126.735466 227.458221,122.164246 
	C229.813934,120.511925 231.958252,118.558197 234.379807,116.595505 
	C235.899521,124.137184 238.453308,125.502052 244.835632,122.374924 
	C247.477112,121.080688 249.891144,119.322227 251.186722,118.525917 
	C253.823532,120.870514 255.813751,123.852135 258.495758,124.737061 
	C262.386047,126.020668 267.027588,122.853249 268.566711,118.996765 
	C266.781219,119.773331 265.218689,120.744118 263.526550,121.101540 
	C262.034729,121.416656 259.054749,121.191643 259.029510,120.957405 
	C258.709961,117.993874 258.566010,114.960411 258.874542,111.996552 
	C259.114502,109.691223 259.857178,107.508240 263.110809,107.508987 
	C267.403259,107.509979 271.695801,107.090317 276.696167,106.645180 
	C279.533752,105.513016 282.371338,104.380859 285.208893,103.248695 
	C284.968262,102.668793 284.727600,102.088882 284.486938,101.508972 
	C281.653625,102.749573 278.820312,103.990173 275.063934,105.169243 
	C270.854523,105.169243 266.645111,105.169243 261.829071,105.169243 
	C262.937408,103.015533 263.625763,101.677940 264.314117,100.340355 
	C264.086578,100.108635 263.859009,99.876907 263.631470,99.645187 
	C258.965485,102.223129 254.299469,104.801071 249.122757,107.661179 
	C251.701660,107.815453 253.607697,107.929474 255.714935,108.055527 
	C254.019821,114.371086 249.369110,117.321892 244.490982,119.813736 
	C241.351059,121.417664 239.237000,120.150238 239.620361,116.394196 
	C239.931458,113.345963 240.648636,110.339180 241.240250,107.006958 
	C239.169189,107.268394 236.934006,108.189819 235.109024,107.670303 
	C227.187805,105.415375 221.469452,108.077843 216.237122,114.119728 
	C212.060257,118.942848 206.483063,122.091354 199.737930,122.268562 
	C196.829651,122.344978 194.389496,121.705421 194.896759,118.035759 
M99.354675,218.066238 
	C102.634125,220.391022 105.839195,219.895355 109.510429,218.609390 
	C115.120285,216.644348 120.938072,215.145874 126.774063,213.984253 
	C134.882874,212.370239 143.090210,211.251129 151.258942,209.919556 
	C151.258942,208.522186 151.258942,207.461716 151.258942,206.411957 
	C159.988785,204.427032 169.040436,204.181580 176.950195,198.744598 
	C171.700638,197.327423 167.172806,196.105072 162.784653,194.920425 
	C165.579330,190.190109 168.068375,185.977127 170.557404,181.764145 
	C170.182419,181.513931 169.807419,181.263733 169.432434,181.013535 
	C160.220566,187.338150 149.643082,189.361511 138.911209,190.939148 
	C137.716660,191.114761 136.513474,191.573090 135.438858,192.137466 
	C134.062897,192.860123 132.916885,194.288727 131.492081,194.605927 
	C123.433167,196.399902 115.332924,198.019119 107.215927,199.532455 
	C105.529572,199.846863 103.406052,200.046555 102.006386,199.308472 
	C92.550278,194.321945 81.663933,195.858582 71.615639,191.673508 
	C61.475574,187.450211 49.523170,187.194107 39.621731,180.972458 
	C39.317623,181.267166 39.013515,181.561890 38.709408,181.856613 
	C41.342251,186.109421 43.975094,190.362228 46.758457,194.858170 
	C42.265095,196.095352 37.770008,197.333023 33.274925,198.570694 
	C33.172489,199.108917 33.070053,199.647156 32.967617,200.185379 
	C41.304085,202.423615 49.640553,204.661850 58.242302,206.971313 
	C58.242302,207.608490 58.242302,208.816284 58.242302,209.315292 
	C71.957123,212.222061 85.264549,215.042480 99.354675,218.066238 
M310.439758,159.214905 
	C314.164276,159.550995 317.888794,159.887085 321.971283,160.255478 
	C321.528778,161.092422 321.163452,162.673141 320.170837,163.508942 
	C315.545929,167.403275 311.477692,162.501053 306.422699,161.772415 
	C308.863617,167.833344 313.360443,167.217728 317.536987,167.022964 
	C321.722504,166.827789 325.213470,165.173523 325.505890,160.493118 
	C325.842285,155.109268 325.583984,149.688248 325.583984,144.755127 
	C321.923401,144.462845 318.527374,144.084869 315.121643,143.947418 
	C311.083374,143.784454 307.879272,145.464844 306.510468,149.347687 
	C305.163361,153.169006 306.218292,156.514694 310.439758,159.214905 
M133.396347,84.803009 
	C137.259964,88.997559 143.165192,90.265129 148.832458,88.360756 
	C154.431747,86.479218 154.888550,81.942993 154.946747,77.138924 
	C154.984955,73.984360 155.190643,70.801437 154.829849,67.688164 
	C154.695755,66.530998 153.161667,65.536064 152.266022,64.467148 
	C151.768158,64.757652 151.270279,65.048157 150.772415,65.338661 
	C150.772415,70.121262 151.002701,74.918030 150.709473,79.682579 
	C150.398880,84.729401 148.167572,86.242050 142.641235,86.057877 
	C138.134537,85.907669 135.997818,83.632133 136.024353,79.168427 
	C136.051819,74.547523 136.030472,69.926323 136.030472,65.305252 
	C135.613663,65.012413 135.196838,64.719574 134.780029,64.426735 
	C133.870132,65.368309 132.168243,66.320061 132.180191,67.249779 
	C132.252319,72.858582 132.716858,78.462334 133.396347,84.803009 
M229.988205,77.978554 
	C227.974319,72.515640 223.906891,70.129356 218.435638,71.200851 
	C213.767471,72.115067 210.833664,75.750267 210.999023,80.415276 
	C211.161987,85.012062 214.296478,88.273491 219.169281,88.916374 
	C224.650024,89.639481 228.073456,87.789604 229.816559,82.300262 
	C226.673401,83.893028 224.323639,85.745407 221.716553,86.239212 
	C218.374802,86.872154 215.520050,85.517570 215.107101,80.915451 
	C219.050385,80.915451 222.839340,81.080124 226.598816,80.819626 
	C227.797043,80.736603 228.917053,79.524391 229.988205,77.978554 
M204.831207,160.159439 
	C205.014496,157.026443 205.108734,153.885010 205.404160,150.762619 
	C205.754623,147.058350 208.588318,146.369232 211.533676,146.340668 
	C214.650360,146.310440 215.875885,148.321289 215.864731,151.254028 
	C215.853470,154.213989 215.862244,157.174026 215.862244,161.404739 
	C222.109406,158.567917 219.123016,153.804825 219.582092,150.470581 
	C219.809494,148.819046 218.633469,145.651550 217.541153,145.378998 
	C213.628937,144.402756 209.481125,144.370682 205.233398,143.963409 
	C205.150482,142.540665 205.017975,140.266876 204.885468,137.993073 
	C204.394104,137.771515 203.902725,137.549942 203.411362,137.328369 
	C202.678894,138.470825 201.359421,139.590286 201.313629,140.759613 
	C201.092239,146.414139 201.076065,152.088562 201.344193,157.738998 
	C201.390396,158.712494 203.160553,159.604156 204.831207,160.159439 
M169.374573,160.174469 
	C171.207809,159.069275 173.041046,157.964066 174.874283,156.858856 
	C174.734512,156.315552 174.594742,155.772247 174.454971,155.228943 
	C169.180603,155.630966 162.822845,162.085175 158.061829,152.836243 
	C164.410431,152.836243 169.639206,152.836243 174.893417,152.836243 
	C174.180084,145.454727 167.717133,141.926163 160.472092,144.486282 
	C156.571243,145.864700 154.455246,148.624817 154.542557,152.727493 
	C154.627487,156.718262 156.996796,159.307587 160.760635,160.118500 
	C163.291153,160.663712 166.000671,160.378174 169.374573,160.174469 
M160.750320,84.109634 
	C161.390182,85.653503 162.030060,87.197372 162.669937,88.741234 
	C163.196564,87.222885 163.946564,85.740303 164.196823,84.177689 
	C164.561127,81.903053 163.937363,79.244041 164.915726,77.363129 
	C165.746552,75.765831 168.238708,74.218102 170.015488,74.195488 
	C171.340958,74.178619 173.474121,76.438095 173.866516,78.025291 
	C174.524994,80.688805 173.949753,83.635628 174.190155,86.437798 
	C174.259521,87.246483 175.344406,87.968040 175.963715,88.729553 
	C176.606567,87.954697 177.728165,87.223663 177.803833,86.396889 
	C178.044861,83.763306 177.978607,81.091148 177.882309,78.439293 
	C177.674881,72.727501 174.296677,70.203041 168.622589,71.263977 
	C166.299271,71.698395 163.918411,71.825119 160.750488,72.183922 
	C160.750488,75.379417 160.750488,79.296074 160.750320,84.109634 
M332.324432,71.812706 
	C323.827484,69.778290 317.494476,73.712173 318.322845,80.586159 
	C318.877075,85.185127 321.203644,88.263931 326.086395,88.953690 
	C331.342621,89.696205 335.742371,87.640221 337.309204,83.629646 
	C338.949158,79.432053 337.454132,75.387817 332.324432,71.812706 
M281.963013,152.494675 
	C282.052460,157.437408 285.255981,159.368591 289.506531,160.232849 
	C294.342346,161.216125 298.943420,160.828445 301.923187,156.378616 
	C304.089264,153.143936 303.550140,149.665329 300.861145,146.816467 
	C297.485199,143.239761 293.055328,143.377075 288.774414,144.211060 
	C284.882019,144.969360 282.335999,147.468262 281.963013,152.494675 
M266.685455,158.131592 
	C269.673859,155.179672 270.165497,151.642883 268.129486,148.187347 
	C265.610687,143.912415 261.251007,143.490112 256.775543,143.942795 
	C252.871628,144.337662 249.735855,145.960999 248.477371,149.937714 
	C247.106079,154.270920 249.159973,158.876190 253.712219,159.566437 
	C257.700928,160.171265 261.955475,159.022903 266.685455,158.131592 
M228.655365,144.349365 
	C227.564667,144.995285 225.592636,145.567169 225.531128,146.299545 
	C225.212051,150.098083 225.254547,153.944595 225.466507,157.757965 
	C225.520615,158.731354 226.649902,159.644974 227.285187,160.586044 
	C227.992142,159.553131 229.117798,158.594864 229.318008,157.471634 
	C229.722275,155.203796 229.477356,152.827911 229.766312,150.530060 
	C230.217834,146.939270 232.857224,145.996017 235.928833,146.251740 
	C238.910980,146.500046 240.150574,148.382675 239.982910,151.409576 
	C239.821060,154.331467 239.947845,157.269348 239.947845,160.200195 
	C240.520218,160.434433 241.092590,160.668686 241.664963,160.902924 
	C242.410370,159.791367 243.637466,158.745712 243.800461,157.554459 
	C244.135544,155.105576 243.894470,152.578766 243.902908,150.084076 
	C243.915955,146.227142 241.849274,144.052261 238.155457,144.010788 
	C235.094543,143.976425 232.025314,144.680038 228.655365,144.349365 
M144.438721,160.649155 
	C145.181656,159.305099 146.495773,157.989914 146.565445,156.611816 
	C146.822403,151.529343 146.667542,146.426056 146.667542,141.387253 
	C150.462845,140.864365 153.763916,140.409576 157.064987,139.954773 
	C156.958542,139.417831 156.852081,138.880875 156.745621,138.343933 
	C148.530319,138.343933 140.315033,138.343933 132.099731,138.343933 
	C132.027328,138.996765 131.954910,139.649582 131.882507,140.302414 
	C135.226120,140.586121 138.569733,140.869827 142.175842,141.175812 
	C142.175842,146.471771 142.070663,151.427780 142.241974,156.374207 
	C142.291336,157.799530 143.136902,159.197266 144.438721,160.649155 
M256.271271,73.483192 
	C258.264893,74.437057 260.258514,75.390930 263.314331,76.853035 
	C260.537628,71.230522 254.602661,69.570816 250.100876,71.996811 
	C246.476089,73.950203 246.244919,77.757965 249.842682,79.722900 
	C251.682800,80.727890 253.999985,80.821022 255.958862,81.659592 
	C257.403870,82.278168 258.617859,83.436356 259.934784,84.354111 
	C258.239319,85.040260 256.553772,86.221596 254.845200,86.255890 
	C253.478058,86.283333 252.122528,84.825829 250.687210,84.198059 
	C249.610458,83.727112 248.415085,83.527382 246.509079,82.992767 
	C249.816940,89.150185 258.063599,90.751030 262.220306,86.980270 
	C265.312744,84.174965 264.321045,80.707039 259.876953,79.169899 
	C256.853821,78.124252 253.756042,77.294456 250.691650,76.368134 
	C250.767975,75.771935 250.844315,75.175735 250.920654,74.579529 
	C252.417130,74.199486 253.913620,73.819450 256.271271,73.483192 
M287.101166,71.782913 
	C289.103180,76.635185 290.936737,81.566444 293.162994,86.313568 
	C294.806519,89.818146 293.643311,91.600578 290.304108,92.624596 
	C289.493896,92.873070 288.687897,93.135201 287.616394,93.474518 
	C291.059265,96.330940 293.435364,96.367729 295.410339,92.778244 
	C299.118225,86.039307 302.178894,78.944252 305.508698,71.997292 
	C304.994507,71.677773 304.480347,71.358253 303.966156,71.038727 
	C298.777588,73.349533 299.600098,80.161667 295.884796,84.105598 
	C294.358246,80.525627 293.219299,77.230942 291.549805,74.231544 
	C290.833649,72.944901 289.014862,72.271980 287.101166,71.782913 
M341.004425,154.530792 
	C340.547791,155.099915 340.091156,155.669052 339.543121,156.352081 
	C333.689728,144.063904 333.689728,144.063904 330.021362,144.638382 
	C330.049255,144.963882 329.982697,145.337112 330.119415,145.607620 
	C331.767609,148.868408 333.440735,152.116699 335.117432,155.363022 
	C338.688660,162.277481 338.390839,162.997421 331.152008,164.886398 
	C333.565765,168.396774 337.683594,167.633163 340.405609,162.776474 
	C343.732239,156.841019 346.678986,150.692657 349.789978,144.636368 
	C349.501526,144.302917 349.213074,143.969467 348.924622,143.636017 
	C347.663696,144.516174 346.023041,145.140884 345.222473,146.330795 
	C343.657532,148.656952 342.561768,151.298752 341.004425,154.530792 
M183.338409,144.719696 
	C178.623337,146.879929 177.948532,150.930054 179.135208,155.201859 
	C180.330032,159.503006 184.245743,160.719070 188.192520,160.794479 
	C192.367050,160.874252 196.357422,160.020370 198.225739,154.082932 
	C196.157425,154.952316 194.601944,155.146271 193.797867,156.026566 
	C190.871231,159.230713 187.111740,159.419785 184.732498,156.711761 
	C183.242859,155.016235 183.050415,150.468109 184.301422,148.464844 
	C186.360931,145.166946 190.050583,145.233658 193.336319,147.992310 
	C194.237534,148.748947 195.725723,148.806488 197.574310,149.380325 
	C194.881302,143.905792 191.828552,142.952744 183.338409,144.719696 
M311.312653,109.787086 
	C308.884003,113.528831 306.455322,117.270569 303.599670,121.670120 
	C297.253876,105.514458 297.063171,105.282379 292.656372,106.745384 
	C293.162018,109.443481 293.651978,112.057823 294.015259,113.996292 
	C295.479034,115.530083 297.198090,116.587440 297.732635,118.071442 
	C298.475220,120.133049 298.329407,122.514664 298.564301,124.763580 
	C303.218658,124.113853 314.121460,114.921310 314.971985,111.159630 
	C315.456299,109.017670 314.469025,108.413673 311.312653,109.787086 
M195.608963,75.835152 
	C194.483078,73.797462 194.420029,70.313568 190.057159,72.031532 
	C192.448761,77.133308 194.720413,82.042450 197.049988,86.923950 
	C198.348419,89.644661 200.505020,89.957756 201.841827,87.426537 
	C204.481689,82.428032 206.547592,77.126404 208.850845,71.950119 
	C208.387756,71.671356 207.924683,71.392586 207.461609,71.113823 
	C202.083054,73.338730 203.132462,80.383034 199.132751,83.913727 
	C198.015610,81.356087 196.960938,78.941483 195.608963,75.835152 
M347.937195,71.088379 
	C345.067474,69.168243 346.572723,68.035805 348.713379,67.174789 
	C349.740051,66.761833 350.889038,66.652901 351.982635,66.406288 
	C343.928925,61.427097 343.551117,69.820572 339.908966,72.721817 
	C345.879822,76.797668 341.167938,83.246193 343.712708,89.016457 
	C344.737427,88.048500 345.884735,87.417061 346.274170,86.473007 
	C346.685028,85.476891 346.172577,84.139130 346.413605,83.026474 
	C347.168793,79.540588 343.893555,74.541840 350.060394,73.038078 
	C349.619080,72.399765 349.177765,71.761452 347.937195,71.088379 
M280.902466,124.596146 
	C285.480621,122.966980 289.755829,120.932549 292.110626,116.286407 
	C288.743286,117.896408 285.761627,120.188080 282.431732,121.725403 
	C278.879547,123.365364 277.422577,122.014099 278.088715,118.208801 
	C278.429504,116.262009 279.264801,114.371712 279.375183,112.427422 
	C279.429779,111.465485 278.348999,110.439102 277.781921,109.441879 
	C276.847809,110.239838 275.509155,110.863083 275.071838,111.875603 
	C274.368622,113.503738 274.309113,115.400429 273.892700,117.163589 
	C272.456451,123.244934 273.733246,124.817596 280.902466,124.596146 
M281.200073,67.478691 
	C280.116486,64.315498 278.737946,66.325630 277.988861,67.511436 
	C276.913696,69.213379 276.294952,71.203636 275.799072,72.341682 
	C276.580078,74.342705 277.518402,75.848808 277.711639,77.445114 
	C278.028229,80.059990 277.535736,82.796616 278.033295,85.355759 
	C278.283600,86.643166 279.772064,88.168037 281.048859,88.636505 
	C282.210297,89.062645 283.842957,88.204620 285.267883,87.912666 
	C278.119537,84.347069 282.567810,78.613304 281.020416,74.645531 
	C282.644836,73.914612 283.836731,73.378311 284.707397,72.986542 
	C283.393921,71.235367 282.302673,69.780487 281.200073,67.478691 
M245.435745,73.354469 
	C244.241852,72.575371 243.080261,71.213516 241.846954,71.145111 
	C239.648880,71.023209 237.407471,71.683189 235.065857,72.033920 
	C233.456116,82.208618 234.275925,87.833069 238.112381,88.629219 
	C238.112381,86.069084 238.068085,83.615936 238.121216,81.164902 
	C238.248734,75.282791 239.150848,74.352287 245.435745,73.354469 
M184.427231,88.785034 
	C185.138809,88.486046 186.459396,88.208664 186.470886,87.884827 
	C186.651474,82.795891 186.722656,77.699738 186.615585,72.609512 
	C186.605713,72.140121 185.111359,71.238846 184.491241,71.375755 
	C183.872177,71.512444 183.057602,72.707306 183.065933,73.429756 
	C183.124374,78.497345 183.373611,83.562729 184.427231,88.785034 
M268.000549,78.587914 
	C268.000549,81.862915 268.000549,85.137909 268.000549,88.412910 
	C268.486664,88.685493 268.972778,88.958084 269.458923,89.230667 
	C270.276520,88.208694 271.663757,87.256744 271.799683,86.150955 
	C272.140411,83.379662 272.245361,80.486336 271.811096,77.742249 
	C271.464111,75.549614 273.954285,72.135109 269.723785,71.528870 
	C269.446899,71.489204 268.588470,75.507797 268.000549,78.587914 
M277.338470,141.614624 
	C276.698914,140.402191 276.059357,139.189774 275.419800,137.977356 
	C274.842499,139.085449 273.804230,140.178146 273.766602,141.304260 
	C273.590088,146.587479 273.583496,151.883698 273.776031,157.165817 
	C273.815582,158.250687 274.967041,159.295044 275.605957,160.358063 
	C276.182953,159.230011 277.212799,158.119766 277.257996,156.970779 
	C277.446320,152.184906 277.338226,147.387360 277.338470,141.614624 
z"/>
<path fill="#2A255D" opacity="1.000000" stroke="none" 
	d="
M130.255249,91.290642 
	C142.860611,91.290642 155.465973,91.290642 168.071335,91.290642 
	C168.073318,92.186005 168.075317,93.081367 168.077301,93.976730 
	C155.709930,93.976730 143.342545,93.976730 130.064545,93.977165 
	C127.422417,93.977600 125.690887,93.977600 123.941055,93.977600 
	C123.941055,99.826859 123.941055,104.942230 123.852829,110.515320 
	C123.764603,116.171791 123.764603,121.370560 123.764603,126.807404 
	C126.212898,126.807404 128.138550,126.807404 130.064209,126.807404 
	C142.749191,126.807404 155.434174,126.807404 168.119156,126.807404 
	C168.132416,127.650360 168.145691,128.493317 168.158966,129.336273 
	C155.825272,129.408493 143.491562,129.480713 130.304062,129.481323 
	C127.554108,129.409714 125.657959,129.409714 123.275749,129.409714 
	C123.533173,132.469635 123.724052,134.738617 123.914932,137.007599 
	C123.914932,145.653030 123.914932,154.298462 123.914932,163.502029 
	C138.582047,163.502029 153.139023,163.502029 167.585236,163.502029 
	C168.824371,170.312012 166.726990,174.823425 159.923798,176.836456 
	C151.871201,179.219177 143.405182,180.169403 135.176147,182.000275 
	C125.315834,184.194077 115.519287,186.673828 105.686127,188.991577 
	C104.811859,189.197662 103.727440,189.453644 102.982887,189.129654 
	C87.807518,182.526489 71.609818,180.865814 55.437241,178.822083 
	C51.504150,178.325058 47.329582,176.470718 44.192329,174.043335 
	C41.937798,172.298965 40.017807,168.571289 40.001656,165.716736 
	C39.746151,120.558075 39.822601,75.397514 39.830315,30.237398 
	C39.830429,29.580994 39.923515,28.924608 40.003315,27.870605 
	C82.609612,27.870605 125.138535,27.870605 167.989838,27.870605 
	C167.989838,37.612446 167.989838,47.337246 167.989838,57.421982 
	C153.361801,57.421982 138.903259,57.421982 123.742165,57.421982 
	C123.742165,66.191071 123.742165,74.622803 123.650467,83.857330 
	C123.251724,92.323280 123.251724,92.323280 130.255249,91.290642 
M92.087189,129.753922 
	C90.363609,129.753922 88.640030,129.753922 86.476555,129.753922 
	C86.609726,132.549438 86.715317,134.765930 86.574196,137.776871 
	C86.547714,143.687775 86.446556,149.600159 86.561859,155.508286 
	C86.583260,156.604630 87.476646,157.683929 88.349068,159.531677 
	C88.424164,159.805161 88.499268,160.078659 88.102760,161.017731 
	C85.634933,162.944977 83.331024,163.797165 82.316399,159.953781 
	C82.638130,159.331650 82.959862,158.709518 83.264305,157.140167 
	C83.194939,150.425934 83.125572,143.711700 83.228371,136.095551 
	C83.228371,134.044647 83.228371,131.993759 83.228371,129.677872 
	C80.671143,129.816879 78.941879,129.910889 77.194389,130.005875 
	C77.071289,132.003265 76.980469,133.476883 76.334381,135.014862 
	C75.962585,134.989517 75.590782,134.964172 75.221680,134.040680 
	C75.221680,132.663986 75.221680,131.287292 75.221680,129.910599 
	C74.741638,129.775116 74.261589,129.639633 73.781548,129.504135 
	C73.231079,130.696121 72.354828,131.844498 72.188446,133.087860 
	C71.578415,137.646744 71.566826,142.312515 70.635399,146.793686 
	C69.775009,150.933121 70.586838,153.822769 74.875900,156.284485 
	C77.979240,159.681992 80.164810,163.316071 79.921906,168.282043 
	C79.746651,171.864883 82.315109,173.908234 85.774696,173.476974 
	C89.395729,173.025620 91.230232,170.567825 90.564117,166.724350 
	C90.417023,165.875626 90.133949,165.050461 89.741119,163.560760 
	C94.438286,163.560760 98.500587,163.560760 102.661781,163.560760 
	C102.661781,154.378433 102.661781,145.736893 102.859825,136.197174 
	C102.859825,134.110321 102.859825,132.023468 102.859825,128.313950 
	C99.456230,129.796341 97.126297,130.811111 94.320732,131.591431 
	C93.869789,131.072906 93.418854,130.554398 92.087189,129.753922 
M150.929092,44.341312 
	C151.549515,46.601440 152.169922,48.861568 152.963242,51.751587 
	C154.176407,48.660061 155.086197,46.341614 155.996002,44.023167 
	C156.340393,44.132915 156.684769,44.242661 157.029160,44.352409 
	C157.465561,46.794769 157.901978,49.237133 158.338379,51.679497 
	C161.001877,43.692715 160.348984,42.766289 152.976059,42.696930 
	C151.990219,42.687656 151.003296,42.794247 149.497116,42.342636 
	C146.437393,43.800583 146.187302,48.645924 149.572510,52.277393 
	C149.817810,49.416607 150.018585,47.075275 150.929092,44.341312 
M105.179581,84.792450 
	C105.179581,87.047569 105.179581,89.302681 105.179581,91.586685 
	C108.440575,91.586685 111.026085,91.586685 113.854790,91.586685 
	C113.854790,88.858475 113.854790,86.402008 113.978989,83.022881 
	C113.978989,77.090996 113.978989,71.159111 113.978989,64.905251 
	C110.744293,65.184029 108.149414,65.407669 105.355049,65.648506 
	C105.355049,72.016624 105.355049,77.960670 105.179581,84.792450 
M116.209450,84.695541 
	C116.734695,87.551567 114.093102,92.556816 120.958305,91.622322 
	C120.958305,88.855728 120.958305,86.407242 121.058701,83.031326 
	C121.058701,74.630753 121.058701,66.230179 121.058701,58.042313 
	C115.347786,58.042313 110.419014,58.042313 105.182777,58.042313 
	C105.283104,59.792419 105.362991,61.186062 105.466812,62.997063 
	C109.195061,62.997063 112.589249,62.997063 116.434082,62.997063 
	C116.434082,70.230675 116.434082,77.028305 116.209450,84.695541 
M86.461151,84.687958 
	C86.461151,86.937935 86.461151,89.187912 86.461151,91.477234 
	C92.175423,91.477234 97.244095,91.477234 102.664833,91.477234 
	C102.664833,88.750153 102.664833,86.318565 102.803795,82.975357 
	C102.803795,77.417358 102.803795,71.859352 102.803795,65.951439 
	C101.249107,66.279564 100.125427,66.423637 99.060272,66.755539 
	C83.787857,71.514473 86.561790,69.117340 86.461151,84.687958 
M102.884384,109.464729 
	C102.884384,104.404968 102.884384,99.345207 102.884384,94.433243 
	C97.091171,94.433243 92.197342,94.433243 86.806511,94.433243 
	C86.806511,99.985107 86.806511,105.114525 86.559830,110.926491 
	C86.559830,113.568268 86.559830,116.210045 86.559830,118.503632 
	C91.445045,116.881363 95.827538,115.617897 100.028847,113.908989 
	C101.223305,113.423134 101.890404,111.640747 102.884384,109.464729 
M77.057358,94.043747 
	C70.462952,94.043747 63.868553,94.043747 57.162540,94.043747 
	C57.162540,100.264198 57.162540,105.977470 57.162540,111.326225 
	C63.983185,112.788193 70.436775,114.171486 77.422104,115.990601 
	C79.197021,116.674156 80.971931,117.357712 83.054306,118.159676 
	C83.054306,115.509903 83.054306,113.255638 83.192833,110.495674 
	C83.140129,110.329033 83.087425,110.162399 83.196487,109.072609 
	C83.196487,104.206970 83.196487,99.341331 83.196487,94.182510 
	C81.151062,94.182510 79.567108,94.182510 77.057358,94.043747 
M105.223442,138.031967 
	C105.223442,146.565536 105.223442,155.099121 105.223442,163.546722 
	C110.860168,163.546722 115.766083,163.546722 120.863861,163.546722 
	C120.863861,154.538132 120.863861,145.797592 121.028885,136.147995 
	C121.028885,134.089035 121.028885,132.030090 121.028885,130.047974 
	C115.408508,130.047974 110.531815,130.047974 105.397041,130.047974 
	C105.397041,132.610397 105.397041,134.868240 105.223442,138.031967 
M83.222328,83.076508 
	C83.231667,79.919434 83.474236,76.737473 83.141212,73.616936 
	C82.998085,72.275757 81.954681,70.407570 80.817848,69.896538 
	C73.374023,66.550316 65.579292,64.690910 57.225403,65.188194 
	C57.225403,74.071587 57.225403,82.602509 57.225403,91.215797 
	C64.389420,91.215797 71.187065,91.215797 78.606110,91.559532 
	C80.141075,91.559532 81.676033,91.559532 83.675919,91.559532 
	C83.435623,88.491516 83.259544,86.243462 83.222328,83.076508 
M62.386936,115.051559 
	C59.758106,114.737503 57.129276,114.423454 54.125721,114.064629 
	C54.125721,107.405174 54.125721,100.972183 54.125721,94.419754 
	C52.186985,94.419754 50.663750,94.419754 49.213127,94.419754 
	C49.213127,105.469566 49.213127,116.179672 49.213127,126.765991 
	C58.174213,126.765991 66.761528,126.765991 75.701340,126.765991 
	C75.850563,123.722862 75.986115,120.958595 76.141785,117.784157 
	C71.666115,116.845459 67.466125,115.964584 62.386936,115.051559 
M48.923370,68.514893 
	C48.923370,76.121208 48.923370,83.727524 48.923370,91.468689 
	C50.910503,91.468689 52.322453,91.468689 54.363876,91.468689 
	C54.363876,81.872467 54.363876,72.490120 54.363876,61.516380 
	C64.577881,63.362366 73.902863,65.047676 83.293472,66.744850 
	C83.293472,64.364807 83.293472,61.289364 83.293472,57.956459 
	C71.831383,57.956459 60.606766,57.956459 48.923367,57.956459 
	C48.923367,61.270443 48.923367,64.396187 48.923370,68.514893 
M115.153336,113.792114 
	C112.873978,114.199730 110.502747,114.348610 108.350052,115.112946 
	C107.079094,115.564224 105.400307,116.870804 105.221741,118.000816 
	C104.773346,120.838387 105.073540,123.794266 105.073540,126.627487 
	C110.838699,126.627487 115.726067,126.627487 121.017525,126.627487 
	C121.017525,122.245544 121.124611,118.275841 120.948906,114.318687 
	C120.899483,113.205513 120.019997,112.129196 119.521225,111.035965 
	C118.268059,111.771095 117.014893,112.506218 115.153336,113.792114 
M114.006050,101.501762 
	C114.006050,99.089745 114.006050,96.677734 114.006050,94.459404 
	C110.595917,94.459404 108.030479,94.459404 105.136559,94.459404 
	C105.136559,99.161949 105.193794,103.465988 105.115868,107.767578 
	C105.066208,110.509453 106.544594,111.176758 108.919289,111.012512 
	C111.164368,110.857231 113.899239,111.582802 113.986183,107.939529 
	C114.029831,106.110641 114.001717,104.280060 114.006050,101.501762 
M86.436516,64.230759 
	C86.557068,65.461281 86.677612,66.691803 86.820290,68.148224 
	C90.970329,66.781738 94.616638,65.095482 98.438286,64.454330 
	C102.562737,63.762367 103.806656,62.070011 102.413780,58.141441 
	C97.179230,58.141441 91.997238,58.141441 86.436623,58.141441 
	C86.436623,60.101139 86.436623,61.730110 86.436516,64.230759 
M95.875374,127.130287 
	C98.107903,127.130287 100.340431,127.130287 102.553192,127.130287 
	C102.553192,123.026314 102.553192,119.663086 102.553192,115.847374 
	C99.397125,116.773170 96.667709,117.573799 93.725304,118.436920 
	C94.234634,121.625633 94.647095,124.207947 95.875374,127.130287 
M121.053535,107.268181 
	C121.053535,102.991760 121.053535,98.715332 121.053535,94.598656 
	C117.594933,93.512932 116.019310,94.156540 116.180412,97.551491 
	C116.337967,100.871574 116.108017,104.211273 116.301125,107.527626 
	C116.354599,108.445946 117.309196,109.311798 117.850365,110.201721 
	C118.910370,109.537903 119.970375,108.874084 121.053535,107.268181 
M92.213646,42.666767 
	C89.678368,44.789181 89.117683,47.482765 91.121712,49.983250 
	C91.989517,51.066025 95.090004,51.962563 95.572182,51.446083 
	C96.935982,49.985249 98.544960,47.381805 98.043365,45.919159 
	C97.491562,44.310081 94.698067,43.469753 92.213646,42.666767 
M125.037003,42.698139 
	C123.383926,42.862083 120.509125,42.621643 120.296989,43.262531 
	C119.527878,45.586189 118.872215,48.541222 119.749893,50.579304 
	C120.227974,51.689472 123.879715,51.432934 126.543068,51.864594 
	C126.202209,48.414703 125.944092,45.802269 125.037003,42.698139 
M145.839951,47.623653 
	C145.073517,45.811440 144.695267,43.577454 143.377319,42.364460 
	C142.715637,41.755478 140.344254,43.004154 138.746063,43.412724 
	C138.885010,43.915916 139.023956,44.419113 139.162888,44.922306 
	C140.354660,44.756840 141.546417,44.591373 142.193970,44.501465 
	C140.961670,46.383263 139.716553,48.284634 138.471436,50.186008 
	C139.701187,50.717751 140.933807,51.687084 142.160004,51.679008 
	C144.013885,51.666786 146.662216,51.864342 145.839951,47.623653 
M110.107224,48.318390 
	C110.298653,49.447868 110.490082,50.577347 110.681511,51.706825 
	C111.035591,51.700436 111.389671,51.694046 111.743752,51.687656 
	C112.264809,49.170399 112.785866,46.653137 113.306931,44.135876 
	C113.660927,44.146797 114.014923,44.157719 114.368919,44.168640 
	C114.830421,46.591789 115.291916,49.014938 115.753418,51.438087 
	C116.455215,51.235195 117.157013,51.032303 117.858810,50.829411 
	C117.053024,48.153069 117.012917,44.139252 115.252068,43.131214 
	C112.932098,41.803101 109.260452,42.836082 106.857246,42.849960 
	C108.331818,44.970818 109.218971,46.246803 110.107224,48.318390 
M64.382317,48.241024 
	C64.170654,45.134724 65.310913,40.842487 59.465355,42.610619 
	C59.129547,41.261036 58.781914,39.863926 58.434277,38.466816 
	C58.136986,38.526543 57.839691,38.586266 57.542400,38.645992 
	C57.542400,42.903351 57.542400,47.160706 57.542400,51.418060 
	C57.838314,51.462223 58.134228,51.506390 58.430141,51.550552 
	C59.018242,48.998417 59.606346,46.446281 60.194447,43.894146 
	C60.665756,43.980724 61.137070,44.067303 61.608379,44.153881 
	C61.955677,46.670025 62.302975,49.186165 62.650272,51.702309 
	C63.007622,51.687271 63.364975,51.672230 63.722328,51.657192 
	C63.941593,50.776119 64.160858,49.895046 64.382317,48.241024 
M54.799854,50.252163 
	C54.241188,48.625137 53.682526,46.998116 53.053001,45.164722 
	C53.077915,45.150269 53.809921,44.725594 54.541927,44.300919 
	C54.495323,43.815655 54.448723,43.330387 54.402119,42.845119 
	C52.569221,42.845119 49.352654,42.352489 49.146454,42.931644 
	C48.318417,45.257385 48.422535,47.915001 48.182091,50.449944 
	C50.228996,50.585052 52.275906,50.720161 54.799854,50.252163 
M134.558060,50.444836 
	C135.061432,50.840305 135.564819,51.235779 136.787064,52.196011 
	C134.634811,47.646164 137.626831,39.696239 128.941177,42.694691 
	C128.941177,45.805767 128.941177,48.742630 128.941177,51.679489 
	C129.212296,51.667580 129.483429,51.655674 129.754547,51.643768 
	C130.689575,49.048088 131.624588,46.452404 132.559616,43.856724 
	C133.201782,44.026764 133.843948,44.196804 134.486115,44.366844 
	C134.486115,46.141998 134.486115,47.917149 134.558060,50.444836 
M69.030151,51.842430 
	C70.253883,51.842430 71.477615,51.842430 73.825989,51.842430 
	C73.013290,48.310665 72.457130,45.265137 71.424316,42.390892 
	C71.322540,42.107677 68.299538,42.874168 66.632416,43.153442 
	C66.711823,43.651688 66.791229,44.149933 66.870636,44.648178 
	C68.087158,44.587234 69.303680,44.526295 70.792564,44.451710 
	C69.349625,47.067474 62.074123,47.201931 69.030151,51.842430 
M77.793747,48.935181 
	C78.037071,47.352791 78.280388,45.770401 78.523712,44.188011 
	C79.045189,44.193413 79.566666,44.198814 80.088150,44.204216 
	C80.536705,46.678200 80.985268,49.152184 81.550377,52.268990 
	C84.967400,44.447906 83.210037,42.109154 75.221970,42.931622 
	C75.221970,45.209049 75.130005,47.513744 75.281364,49.802345 
	C75.323479,50.439117 76.085976,51.028244 76.517975,51.639229 
	C76.939217,51.019466 77.360458,50.399708 77.793747,48.935181 
M84.195412,42.924160 
	C84.486549,44.987537 84.500175,47.147423 85.171738,49.078503 
	C85.581917,50.258003 87.003685,51.085712 88.758339,52.873520 
	C88.219063,47.080612 87.856255,43.183331 87.493439,39.286045 
	C87.057312,39.295189 86.621185,39.304333 86.185051,39.313473 
	C85.622879,40.281845 85.060707,41.250214 84.195412,42.924160 
M90.503952,127.242447 
	C95.645035,126.389687 91.833549,123.289047 92.485062,121.309013 
	C92.089180,121.014175 91.693298,120.719337 91.297424,120.424500 
	C89.674553,122.102173 88.051682,123.779846 86.428810,125.457527 
	C87.532028,126.052971 88.635246,126.648407 90.503952,127.242447 
M78.003143,121.819946 
	C77.833778,123.401131 77.664413,124.982315 77.462700,126.865448 
	C79.519875,126.865448 81.218231,126.865448 82.872093,126.865448 
	C84.164696,122.567513 81.197533,122.011841 78.003143,121.819946 
z"/>
<path fill="#2B265E" opacity="1.000000" stroke="none" 
	d="
M98.963333,217.964569 
	C85.264549,215.042480 71.957123,212.222061 58.242302,209.315292 
	C58.242302,208.816284 58.242302,207.608490 58.242302,206.971313 
	C49.640553,204.661850 41.304085,202.423615 32.967617,200.185379 
	C33.070053,199.647156 33.172489,199.108917 33.274925,198.570694 
	C37.770008,197.333023 42.265095,196.095352 46.758457,194.858170 
	C43.975094,190.362228 41.342251,186.109421 38.709408,181.856613 
	C39.013515,181.561890 39.317623,181.267166 39.621731,180.972458 
	C49.523170,187.194107 61.475574,187.450211 71.615639,191.673508 
	C81.663933,195.858582 92.550278,194.321945 102.006386,199.308472 
	C103.406052,200.046555 105.529572,199.846863 107.215927,199.532455 
	C115.332924,198.019119 123.433167,196.399902 131.492081,194.605927 
	C132.916885,194.288727 134.062897,192.860123 135.438858,192.137466 
	C136.513474,191.573090 137.716660,191.114761 138.911209,190.939148 
	C149.643082,189.361511 160.220566,187.338150 169.432434,181.013535 
	C169.807419,181.263733 170.182419,181.513931 170.557404,181.764145 
	C168.068375,185.977127 165.579330,190.190109 162.784653,194.920425 
	C167.172806,196.105072 171.700638,197.327423 176.950195,198.744598 
	C169.040436,204.181580 159.988785,204.427032 151.258942,206.411957 
	C151.258942,207.461716 151.258942,208.522186 151.258942,209.919556 
	C143.090210,211.251129 134.882874,212.370239 126.774063,213.984253 
	C120.938072,215.145874 115.120285,216.644348 109.510429,218.609390 
	C105.839195,219.895355 102.634125,220.391022 98.963333,217.964569 
M78.846123,204.378311 
	C78.846123,204.378311 78.910751,204.697937 78.500931,204.999832 
	C78.364960,205.285156 78.228989,205.570480 78.079117,206.587845 
	C79.045853,211.724503 80.694496,207.088242 82.653442,207.133850 
	C83.657928,207.651779 84.662422,208.169708 85.701096,208.705261 
	C86.084526,207.178772 86.447830,205.732422 86.892197,203.963318 
	C85.103493,203.963318 83.521370,203.963318 81.648849,203.840103 
	C81.648849,203.840103 81.347313,203.932770 81.062302,203.312988 
	C80.744453,202.998062 80.426598,202.683151 79.624168,201.893555 
	C78.817482,201.973480 78.010796,202.053391 76.845459,202.168839 
	C77.823891,203.050507 78.390549,203.561111 78.846123,204.378311 
M120.641060,209.567184 
	C124.159149,212.086746 125.276588,209.888077 126.564270,207.336029 
	C127.791557,207.933472 129.018845,208.530899 130.246140,209.128342 
	C130.765259,208.005600 131.928848,206.692261 131.665237,205.801010 
	C131.163208,204.103577 129.846161,202.647171 128.867508,201.090698 
	C127.903870,202.708725 126.940231,204.326767 125.330994,205.702942 
	C124.165482,204.689911 122.999969,203.676880 121.834457,202.663849 
	C121.210709,204.100525 120.421967,205.493118 120.022171,206.989624 
	C119.762756,207.960663 120.070847,209.083328 119.420822,209.915878 
	C115.099487,209.816467 119.214333,207.967468 118.848511,207.013214 
	C118.525223,206.169876 118.630379,204.501358 118.302917,204.437073 
	C117.010315,204.183273 115.620728,204.403229 114.272095,204.510193 
	C114.199272,204.515961 114.171700,205.092392 114.072479,205.726425 
	C115.037910,205.642365 115.933998,205.564331 117.171440,205.456589 
	C116.139763,207.777237 115.312042,209.639099 114.484329,211.500961 
	C114.747421,211.823547 115.010521,212.146118 115.273621,212.468689 
	C116.862885,211.657471 118.452156,210.846252 120.641060,209.567184 
M99.079910,209.338806 
	C99.079910,207.051270 99.079910,204.763748 99.079910,202.476212 
	C98.633728,202.404297 98.187553,202.332397 97.741371,202.260498 
	C96.204086,205.143799 94.666794,208.027115 93.129509,210.910416 
	C93.647087,211.421051 94.164665,211.931702 94.682236,212.442337 
	C96.141457,211.704819 97.600677,210.967300 99.079910,209.338806 
M154.072495,201.114334 
	C157.724487,202.288239 159.603485,200.655380 160.300156,197.238647 
	C158.971390,196.266205 157.666519,195.311279 156.361649,194.354385 
	C155.265182,196.236984 151.550385,197.101746 154.072495,201.114334 
M55.817417,201.175827 
	C56.767651,201.313354 57.717888,201.450867 58.691395,201.591751 
	C59.083534,200.239151 59.515701,198.748489 59.934841,197.302750 
	C58.739292,196.274704 57.560230,195.260834 56.505665,194.354019 
	C55.271439,195.398880 54.061085,196.423523 52.679302,197.593292 
	C53.476463,198.848373 54.299641,200.144409 55.817417,201.175827 
M74.894249,206.407913 
	C75.229042,207.147247 75.563843,207.886581 75.898636,208.625916 
	C76.272346,208.205170 76.646057,207.784409 77.019768,207.363663 
	C76.457100,206.972290 75.894424,206.580917 74.894249,206.407913 
M81.329193,209.476868 
	C81.329193,209.476868 81.600235,209.610840 81.600235,209.610840 
	C81.600235,209.610840 81.546379,209.323730 81.329193,209.476868 
z"/>
<path fill="#8A8883" opacity="1.000000" stroke="none" 
	d="
M275.988281,106.851486 
	C271.695801,107.090317 267.403259,107.509979 263.110809,107.508987 
	C259.857178,107.508240 259.114502,109.691223 258.874542,111.996552 
	C258.566010,114.960411 258.709961,117.993874 259.029510,120.957405 
	C259.054749,121.191643 262.034729,121.416656 263.526550,121.101540 
	C265.218689,120.744118 266.781219,119.773331 268.566711,118.996765 
	C267.027588,122.853249 262.386047,126.020668 258.495758,124.737061 
	C255.813751,123.852135 253.823532,120.870514 251.186722,118.525917 
	C249.891144,119.322227 247.477112,121.080688 244.835632,122.374924 
	C238.453308,125.502052 235.899521,124.137184 234.379807,116.595505 
	C231.958252,118.558197 229.813934,120.511925 227.458221,122.164246 
	C220.941071,126.735466 218.105560,126.029587 214.748734,119.161385 
	C211.677582,120.639938 208.607788,122.126282 205.527817,123.591209 
	C205.080750,123.803848 204.587357,123.921814 204.111221,124.070160 
	C196.621140,126.403740 190.864365,124.903152 189.353012,120.225533 
	C187.657089,114.976654 191.576920,109.935005 199.556442,107.931732 
	C199.971771,108.468071 199.982346,108.695290 199.703705,109.107635 
	C197.802780,111.547371 196.191071,113.801971 194.413910,116.283325 
	C194.189651,117.062904 194.130844,117.615738 194.072037,118.168571 
	C194.389496,121.705421 196.829651,122.344978 199.737930,122.268562 
	C206.483063,122.091354 212.060257,118.942848 216.237122,114.119728 
	C221.469452,108.077843 227.187805,105.415375 235.109024,107.670303 
	C236.934006,108.189819 239.169189,107.268394 241.240250,107.006958 
	C240.648636,110.339180 239.931458,113.345963 239.620361,116.394196 
	C239.237000,120.150238 241.351059,121.417664 244.490982,119.813736 
	C249.369110,117.321892 254.019821,114.371086 255.714935,108.055527 
	C253.607697,107.929474 251.701660,107.815453 249.122757,107.661179 
	C254.299469,104.801071 258.965485,102.223129 263.631470,99.645187 
	C263.859009,99.876907 264.086578,100.108635 264.314117,100.340355 
	C263.625763,101.677940 262.937408,103.015533 261.829071,105.169243 
	C266.645111,105.169243 270.854523,105.169243 275.526611,105.470123 
	C275.988922,106.131157 275.988586,106.491325 275.988281,106.851486 
M223.233673,121.860321 
	C227.360229,118.566322 231.486771,115.272324 235.613327,111.978325 
	C235.353226,111.401138 235.093140,110.823959 234.833038,110.246773 
	C232.469925,109.816719 229.608521,108.350594 227.857315,109.192825 
	C225.038910,110.548325 222.514069,113.126083 220.704239,115.763268 
	C219.377274,117.696808 219.064346,120.655083 223.233673,121.860321 
z"/>
<path fill="#393469" opacity="1.000000" stroke="none" 
	d="
M310.112335,159.014740 
	C306.218292,156.514694 305.163361,153.169006 306.510468,149.347687 
	C307.879272,145.464844 311.083374,143.784454 315.121643,143.947418 
	C318.527374,144.084869 321.923401,144.462845 325.583984,144.755127 
	C325.583984,149.688248 325.842285,155.109268 325.505890,160.493118 
	C325.213470,165.173523 321.722504,166.827789 317.536987,167.022964 
	C313.360443,167.217728 308.863617,167.833344 306.422699,161.772415 
	C311.477692,162.501053 315.545929,167.403275 320.170837,163.508942 
	C321.163452,162.673141 321.528778,161.092422 321.971283,160.255478 
	C317.888794,159.887085 314.164276,159.550995 310.112335,159.014740 
M311.474060,148.099930 
	C311.492828,150.816391 310.591492,154.125671 311.833801,156.053787 
	C312.757233,157.486908 316.993958,158.176178 318.771454,157.269272 
	C320.482147,156.396454 321.802277,153.025070 321.743439,150.792343 
	C321.634338,146.651947 317.206207,145.384171 311.474060,148.099930 
z"/>
<path fill="#2F2B62" opacity="1.000000" stroke="none" 
	d="
M133.223236,84.435394 
	C132.716858,78.462334 132.252319,72.858582 132.180191,67.249779 
	C132.168243,66.320061 133.870132,65.368309 134.780029,64.426735 
	C135.196838,64.719574 135.613663,65.012413 136.030472,65.305252 
	C136.030472,69.926323 136.051819,74.547523 136.024353,79.168427 
	C135.997818,83.632133 138.134537,85.907669 142.641235,86.057877 
	C148.167572,86.242050 150.398880,84.729401 150.709473,79.682579 
	C151.002701,74.918030 150.772415,70.121262 150.772415,65.338661 
	C151.270279,65.048157 151.768158,64.757652 152.266022,64.467148 
	C153.161667,65.536064 154.695755,66.530998 154.829849,67.688164 
	C155.190643,70.801437 154.984955,73.984360 154.946747,77.138924 
	C154.888550,81.942993 154.431747,86.479218 148.832458,88.360756 
	C143.165192,90.265129 137.259964,88.997559 133.223236,84.435394 
z"/>
<path fill="#413C6F" opacity="1.000000" stroke="none" 
	d="
M230.030518,78.403709 
	C228.917053,79.524391 227.797043,80.736603 226.598816,80.819626 
	C222.839340,81.080124 219.050385,80.915451 215.107101,80.915451 
	C215.520050,85.517570 218.374802,86.872154 221.716553,86.239212 
	C224.323639,85.745407 226.673401,83.893028 229.816559,82.300262 
	C228.073456,87.789604 224.650024,89.639481 219.169281,88.916374 
	C214.296478,88.273491 211.161987,85.012062 210.999023,80.415276 
	C210.833664,75.750267 213.767471,72.115067 218.435638,71.200851 
	C223.906891,70.129356 227.974319,72.515640 230.030518,78.403709 
M221.489914,78.211365 
	C222.993530,78.103691 224.497147,77.996010 226.000763,77.888336 
	C226.138885,77.250633 226.277008,76.612930 226.415146,75.975220 
	C224.231934,75.254944 222.020142,73.915047 219.874756,74.014061 
	C218.213898,74.090714 216.636154,75.967819 215.021469,77.044540 
	C215.250946,77.433510 215.480408,77.822479 215.709885,78.211449 
	C217.341660,78.211449 218.973419,78.211449 221.489914,78.211365 
z"/>
<path fill="#3C386B" opacity="1.000000" stroke="none" 
	d="
M204.482788,160.346527 
	C203.160553,159.604156 201.390396,158.712494 201.344193,157.738998 
	C201.076065,152.088562 201.092239,146.414139 201.313629,140.759613 
	C201.359421,139.590286 202.678894,138.470825 203.411362,137.328369 
	C203.902725,137.549942 204.394104,137.771515 204.885468,137.993073 
	C205.017975,140.266876 205.150482,142.540665 205.233398,143.963409 
	C209.481125,144.370682 213.628937,144.402756 217.541153,145.378998 
	C218.633469,145.651550 219.809494,148.819046 219.582092,150.470581 
	C219.123016,153.804825 222.109406,158.567917 215.862244,161.404739 
	C215.862244,157.174026 215.853470,154.213989 215.864731,151.254028 
	C215.875885,148.321289 214.650360,146.310440 211.533676,146.340668 
	C208.588318,146.369232 205.754623,147.058350 205.404160,150.762619 
	C205.108734,153.885010 205.014496,157.026443 204.482788,160.346527 
z"/>
<path fill="#393469" opacity="1.000000" stroke="none" 
	d="
M169.002335,160.319397 
	C166.000671,160.378174 163.291153,160.663712 160.760635,160.118500 
	C156.996796,159.307587 154.627487,156.718262 154.542557,152.727493 
	C154.455246,148.624817 156.571243,145.864700 160.472092,144.486282 
	C167.717133,141.926163 174.180084,145.454727 174.893417,152.836243 
	C169.639206,152.836243 164.410431,152.836243 158.061829,152.836243 
	C162.822845,162.085175 169.180603,155.630966 174.454971,155.228943 
	C174.594742,155.772247 174.734512,156.315552 174.874283,156.858856 
	C173.041046,157.964066 171.207809,159.069275 169.002335,160.319397 
M170.451843,150.698196 
	C170.569717,146.788696 167.651505,146.255386 164.900528,146.195755 
	C162.103271,146.135117 159.478622,146.991272 159.048416,150.827667 
	C162.761826,150.827667 166.201447,150.827667 170.451843,150.698196 
z"/>
<path fill="#3C386B" opacity="1.000000" stroke="none" 
	d="
M160.750397,83.661179 
	C160.750488,79.296074 160.750488,75.379417 160.750488,72.183922 
	C163.918411,71.825119 166.299271,71.698395 168.622589,71.263977 
	C174.296677,70.203041 177.674881,72.727501 177.882309,78.439293 
	C177.978607,81.091148 178.044861,83.763306 177.803833,86.396889 
	C177.728165,87.223663 176.606567,87.954697 175.963715,88.729546 
	C175.344406,87.968040 174.259521,87.246483 174.190155,86.437798 
	C173.949753,83.635628 174.524994,80.688805 173.866516,78.025291 
	C173.474121,76.438095 171.340958,74.178619 170.015488,74.195488 
	C168.238708,74.218102 165.746552,75.765831 164.915726,77.363129 
	C163.937363,79.244041 164.561127,81.903053 164.196823,84.177689 
	C163.946564,85.740303 163.196564,87.222885 162.669937,88.741234 
	C162.030060,87.197372 161.390182,85.653503 160.750397,83.661179 
z"/>
<path fill="#3C386B" opacity="1.000000" stroke="none" 
	d="
M332.688599,71.964066 
	C337.454132,75.387817 338.949158,79.432053 337.309204,83.629646 
	C335.742371,87.640221 331.342621,89.696205 326.086395,88.953690 
	C321.203644,88.263931 318.877075,85.185127 318.322845,80.586159 
	C317.494476,73.712173 323.827484,69.778290 332.688599,71.964066 
M327.642151,86.402428 
	C332.191528,86.376144 334.196472,84.022423 334.050354,79.551987 
	C333.942047,76.240112 332.338684,74.273254 329.081451,73.818108 
	C325.646057,73.338051 323.147400,74.759972 322.399994,78.184799 
	C321.574219,81.969048 322.511993,85.096985 327.642151,86.402428 
z"/>
<path fill="#393469" opacity="1.000000" stroke="none" 
	d="
M281.963257,152.091949 
	C282.335999,147.468262 284.882019,144.969360 288.774414,144.211060 
	C293.055328,143.377075 297.485199,143.239761 300.861145,146.816467 
	C303.550140,149.665329 304.089264,153.143936 301.923187,156.378616 
	C298.943420,160.828445 294.342346,161.216125 289.506531,160.232849 
	C285.255981,159.368591 282.052460,157.437408 281.963257,152.091949 
M286.506134,149.348831 
	C286.340454,150.478073 286.032532,151.607559 286.034607,152.736496 
	C286.042145,156.831482 288.795776,158.139969 292.238190,158.286667 
	C295.824402,158.439499 298.392975,156.789551 298.776550,152.996262 
	C299.154205,149.261459 297.083191,146.692459 293.547363,146.452774 
	C291.398254,146.307083 289.133392,147.869125 286.506134,149.348831 
z"/>
<path fill="#393469" opacity="1.000000" stroke="none" 
	d="
M266.389038,158.390289 
	C261.955475,159.022903 257.700928,160.171265 253.712219,159.566437 
	C249.159973,158.876190 247.106079,154.270920 248.477371,149.937714 
	C249.735855,145.960999 252.871628,144.337662 256.775543,143.942795 
	C261.251007,143.490112 265.610687,143.912415 268.129486,148.187347 
	C270.165497,151.642883 269.673859,155.179672 266.389038,158.390289 
M259.284302,146.195953 
	C257.188049,147.199463 254.432541,147.684677 253.144211,149.323364 
	C251.010132,152.037781 252.599701,156.483475 255.468109,157.782288 
	C258.697357,159.244492 263.344421,157.876923 264.611359,155.091568 
	C266.290680,151.399658 264.740021,148.407379 259.284302,146.195953 
z"/>
<path fill="#3C386B" opacity="1.000000" stroke="none" 
	d="
M228.807571,144.703033 
	C232.025314,144.680038 235.094543,143.976425 238.155457,144.010788 
	C241.849274,144.052261 243.915955,146.227142 243.902908,150.084076 
	C243.894470,152.578766 244.135544,155.105576 243.800461,157.554459 
	C243.637466,158.745712 242.410370,159.791367 241.664963,160.902924 
	C241.092590,160.668686 240.520218,160.434433 239.947845,160.200195 
	C239.947845,157.269348 239.821060,154.331467 239.982910,151.409576 
	C240.150574,148.382675 238.910980,146.500046 235.928833,146.251740 
	C232.857224,145.996017 230.217834,146.939270 229.766312,150.530060 
	C229.477356,152.827911 229.722275,155.203796 229.318008,157.471634 
	C229.117798,158.594864 227.992142,159.553131 227.285187,160.586044 
	C226.649902,159.644974 225.520615,158.731354 225.466507,157.757965 
	C225.254547,153.944595 225.212051,150.098083 225.531128,146.299545 
	C225.592636,145.567169 227.564667,144.995285 228.807571,144.703033 
z"/>
<path fill="#464273" opacity="1.000000" stroke="none" 
	d="
M144.028076,160.628403 
	C143.136902,159.197266 142.291336,157.799530 142.241974,156.374207 
	C142.070663,151.427780 142.175842,146.471771 142.175842,141.175812 
	C138.569733,140.869827 135.226120,140.586121 131.882507,140.302414 
	C131.954910,139.649582 132.027328,138.996765 132.099731,138.343933 
	C140.315033,138.343933 148.530319,138.343933 156.745621,138.343933 
	C156.852081,138.880875 156.958542,139.417831 157.064987,139.954773 
	C153.763916,140.409576 150.462845,140.864365 146.667542,141.387253 
	C146.667542,146.426056 146.822403,151.529343 146.565445,156.611816 
	C146.495773,157.989914 145.181656,159.305099 144.028076,160.628403 
z"/>
<path fill="#413C6F" opacity="1.000000" stroke="none" 
	d="
M255.840683,73.461304 
	C253.913620,73.819450 252.417130,74.199486 250.920654,74.579529 
	C250.844315,75.175735 250.767975,75.771935 250.691650,76.368134 
	C253.756042,77.294456 256.853821,78.124252 259.876953,79.169899 
	C264.321045,80.707039 265.312744,84.174965 262.220306,86.980270 
	C258.063599,90.751030 249.816940,89.150185 246.509079,82.992767 
	C248.415085,83.527382 249.610458,83.727112 250.687210,84.198059 
	C252.122528,84.825829 253.478058,86.283333 254.845200,86.255890 
	C256.553772,86.221596 258.239319,85.040260 259.934784,84.354111 
	C258.617859,83.436356 257.403870,82.278168 255.958862,81.659592 
	C253.999985,80.821022 251.682800,80.727890 249.842682,79.722900 
	C246.244919,77.757965 246.476089,73.950203 250.100876,71.996811 
	C254.602661,69.570816 260.537628,71.230522 263.314331,76.853035 
	C260.258514,75.390930 258.264893,74.437057 255.840683,73.461304 
z"/>
<path fill="#8B8984" opacity="1.000000" stroke="none" 
	d="
M145.983246,102.804245 
	C143.581787,105.238884 140.307449,107.294968 139.038574,110.220787 
	C137.900925,112.843964 137.900101,117.134758 139.384659,119.370468 
	C140.710724,121.367493 144.813629,122.504364 147.579391,122.322258 
	C151.365341,122.072998 155.045502,120.217262 158.829590,119.031723 
	C158.830750,119.040298 159.123154,119.681160 158.922836,119.938530 
	C154.574631,125.525124 140.188843,126.921196 135.027069,122.302444 
	C131.713043,119.337059 130.672791,113.987503 133.988342,110.099495 
	C136.967941,106.605446 141.371628,104.325821 145.543671,101.800430 
	C145.954544,102.328323 145.968887,102.566284 145.983246,102.804245 
z"/>
<path fill="#393469" opacity="1.000000" stroke="none" 
	d="
M287.399109,71.551559 
	C289.014862,72.271980 290.833649,72.944901 291.549805,74.231544 
	C293.219299,77.230942 294.358246,80.525627 295.884796,84.105598 
	C299.600098,80.161667 298.777588,73.349533 303.966156,71.038727 
	C304.480347,71.358253 304.994507,71.677773 305.508698,71.997292 
	C302.178894,78.944252 299.118225,86.039307 295.410339,92.778244 
	C293.435364,96.367729 291.059265,96.330940 287.616394,93.474518 
	C288.687897,93.135201 289.493896,92.873070 290.304108,92.624596 
	C293.643311,91.600578 294.806519,89.818146 293.162994,86.313568 
	C290.936737,81.566444 289.103180,76.635185 287.399109,71.551559 
z"/>
<path fill="#393469" opacity="1.000000" stroke="none" 
	d="
M341.138092,154.170334 
	C342.561768,151.298752 343.657532,148.656952 345.222473,146.330795 
	C346.023041,145.140884 347.663696,144.516174 348.924622,143.636017 
	C349.213074,143.969467 349.501526,144.302917 349.789978,144.636368 
	C346.678986,150.692657 343.732239,156.841019 340.405609,162.776474 
	C337.683594,167.633163 333.565765,168.396774 331.152008,164.886398 
	C338.390839,162.997421 338.688660,162.277481 335.117432,155.363022 
	C333.440735,152.116699 331.767609,148.868408 330.119415,145.607620 
	C329.982697,145.337112 330.049255,144.963882 330.025818,144.638000 
	C333.689728,144.063904 333.689728,144.063904 339.543121,156.352081 
	C340.091156,155.669052 340.547791,155.099915 341.138092,154.170334 
z"/>
<path fill="#393469" opacity="1.000000" stroke="none" 
	d="
M183.685333,144.564896 
	C191.828552,142.952744 194.881302,143.905792 197.574310,149.380325 
	C195.725723,148.806488 194.237534,148.748947 193.336319,147.992310 
	C190.050583,145.233658 186.360931,145.166946 184.301422,148.464844 
	C183.050415,150.468109 183.242859,155.016235 184.732498,156.711761 
	C187.111740,159.419785 190.871231,159.230713 193.797867,156.026566 
	C194.601944,155.146271 196.157425,154.952316 198.225739,154.082932 
	C196.357422,160.020370 192.367050,160.874252 188.192520,160.794479 
	C184.245743,160.719070 180.330032,159.503006 179.135208,155.201859 
	C177.948532,150.930054 178.623337,146.879929 183.685333,144.564896 
z"/>
<path fill="#8B8984" opacity="1.000000" stroke="none" 
	d="
M322.019836,118.051559 
	C321.984314,121.815620 324.591766,122.290794 327.426636,122.239922 
	C334.150330,122.119255 339.242493,118.429070 344.144958,114.383026 
	C345.132111,113.568344 346.099365,112.729599 347.591034,111.465210 
	C347.591034,112.681450 347.825500,113.431580 347.556488,113.734406 
	C341.860901,120.145485 335.038513,124.510376 326.231781,125.038406 
	C322.381287,125.269264 318.572388,124.664383 317.253448,120.472794 
	C315.841614,115.986160 317.770935,112.308044 321.700134,109.882118 
	C323.356110,108.859695 325.316528,108.330437 327.548187,107.894875 
	C327.968781,108.431175 327.979767,108.649605 327.682800,109.012344 
	C325.616241,111.377335 323.857574,113.598007 322.071533,116.190208 
	C322.036041,117.058342 322.027924,117.554947 322.019836,118.051559 
z"/>
<path fill="#8B8984" opacity="1.000000" stroke="none" 
	d="
M311.477905,109.455078 
	C314.469025,108.413673 315.456299,109.017670 314.971985,111.159630 
	C314.121460,114.921310 303.218658,124.113853 298.564301,124.763580 
	C298.329407,122.514664 298.475220,120.133049 297.732635,118.071442 
	C297.198090,116.587440 295.479034,115.530083 294.015259,113.996292 
	C293.651978,112.057823 293.162018,109.443481 292.656372,106.745384 
	C297.063171,105.282379 297.253876,105.514458 303.599670,121.670120 
	C306.455322,117.270569 308.884003,113.528831 311.477905,109.455078 
z"/>
<path fill="#3C386B" opacity="1.000000" stroke="none" 
	d="
M195.757614,76.181015 
	C196.960938,78.941483 198.015610,81.356087 199.132751,83.913727 
	C203.132462,80.383034 202.083054,73.338730 207.461609,71.113823 
	C207.924683,71.392586 208.387756,71.671356 208.850845,71.950119 
	C206.547592,77.126404 204.481689,82.428032 201.841827,87.426537 
	C200.505020,89.957756 198.348419,89.644661 197.049988,86.923950 
	C194.720413,82.042450 192.448761,77.133308 190.057159,72.031532 
	C194.420029,70.313568 194.483078,73.797462 195.757614,76.181015 
z"/>
<path fill="#353066" opacity="1.000000" stroke="none" 
	d="
M348.336792,71.105759 
	C349.177765,71.761452 349.619080,72.399765 350.060394,73.038086 
	C343.893555,74.541840 347.168793,79.540588 346.413605,83.026474 
	C346.172577,84.139130 346.685028,85.476891 346.274170,86.473007 
	C345.884735,87.417061 344.737427,88.048500 343.712708,89.016457 
	C341.167938,83.246193 345.879822,76.797668 339.905212,72.715515 
	C343.551117,69.820572 343.928925,61.427097 351.982635,66.406288 
	C350.889038,66.652901 349.740051,66.761833 348.713379,67.174789 
	C346.572723,68.035805 345.067474,69.168243 348.336792,71.105759 
z"/>
<path fill="#8B8984" opacity="1.000000" stroke="none" 
	d="
M280.517242,124.684341 
	C273.733246,124.817596 272.456451,123.244934 273.892700,117.163589 
	C274.309113,115.400429 274.368622,113.503738 275.071838,111.875603 
	C275.509155,110.863083 276.847809,110.239838 277.781921,109.441879 
	C278.348999,110.439102 279.429779,111.465485 279.375183,112.427422 
	C279.264801,114.371712 278.429504,116.262009 278.088715,118.208801 
	C277.422577,122.014099 278.879547,123.365364 282.431732,121.725403 
	C285.761627,120.188080 288.743286,117.896408 292.110626,116.286407 
	C289.755829,120.932549 285.480621,122.966980 280.517242,124.684341 
z"/>
<path fill="#C4DDCF" opacity="1.000000" stroke="none" 
	d="
M130.058990,126.352356 
	C128.138550,126.807404 126.212898,126.807404 123.764603,126.807404 
	C123.764603,121.370560 123.764603,116.171791 124.284515,110.509186 
	C126.526299,110.053001 128.248169,110.060654 129.970032,110.068314 
	C129.997955,115.344643 130.025864,120.620972 130.058990,126.352356 
z"/>
<path fill="#353066" opacity="1.000000" stroke="none" 
	d="
M281.205750,67.902145 
	C282.302673,69.780487 283.393921,71.235367 284.707397,72.986542 
	C283.836731,73.378311 282.644836,73.914612 281.020416,74.645531 
	C282.567810,78.613304 278.119537,84.347069 285.267883,87.912666 
	C283.842957,88.204620 282.210297,89.062645 281.048859,88.636505 
	C279.772064,88.168037 278.283600,86.643166 278.033295,85.355759 
	C277.535736,82.796616 278.028229,80.059990 277.711639,77.445114 
	C277.518402,75.848808 276.580078,74.342705 275.799072,72.341682 
	C276.294952,71.203636 276.913696,69.213379 277.988861,67.511436 
	C278.737946,66.325630 280.116486,64.315498 281.205750,67.902145 
z"/>
<path fill="#8A8883" opacity="1.000000" stroke="none" 
	d="
M178.214645,113.223869 
	C174.059723,116.743370 172.644379,123.031128 167.254776,125.303032 
	C166.748764,125.051544 166.242752,124.800064 165.736740,124.548584 
	C166.677032,119.507072 167.617325,114.465553 168.676666,108.785797 
	C169.762436,108.846741 172.288544,108.867302 172.295151,109.006889 
	C172.412598,111.492935 172.224167,113.993431 172.085464,116.819733 
	C173.626602,115.430679 175.215622,113.998466 177.285782,112.661209 
	C177.916168,112.912071 178.065399,113.067970 178.214645,113.223869 
z"/>
<path fill="#353066" opacity="1.000000" stroke="none" 
	d="
M245.186493,73.664650 
	C239.150848,74.352287 238.248734,75.282791 238.121216,81.164902 
	C238.068085,83.615936 238.112381,86.069084 238.112381,88.629219 
	C234.275925,87.833069 233.456116,82.208618 235.065857,72.033920 
	C237.407471,71.683189 239.648880,71.023209 241.846954,71.145111 
	C243.080261,71.213516 244.241852,72.575371 245.186493,73.664650 
z"/>
<path fill="#FAC7C8" opacity="1.000000" stroke="none" 
	d="
M129.994598,109.595413 
	C128.248169,110.060654 126.526299,110.053001 124.372742,110.051476 
	C123.941055,104.942230 123.941055,99.826859 123.941055,93.977600 
	C125.690887,93.977600 127.422417,93.977600 129.606018,94.059830 
	C130.045105,99.135544 130.032135,104.129021 129.994598,109.595413 
z"/>
<path fill="#464273" opacity="1.000000" stroke="none" 
	d="
M183.994537,88.706924 
	C183.373611,83.562729 183.124374,78.497345 183.065933,73.429756 
	C183.057602,72.707306 183.872177,71.512444 184.491241,71.375755 
	C185.111359,71.238846 186.605713,72.140121 186.615585,72.609512 
	C186.722656,77.699738 186.651474,82.795891 186.470886,87.884827 
	C186.459396,88.208664 185.138809,88.486046 183.994537,88.706924 
z"/>
<path fill="#413C6F" opacity="1.000000" stroke="none" 
	d="
M268.000549,78.113297 
	C268.588470,75.507797 269.446899,71.489204 269.723785,71.528870 
	C273.954285,72.135109 271.464111,75.549614 271.811096,77.742249 
	C272.245361,80.486336 272.140411,83.379662 271.799683,86.150955 
	C271.663757,87.256744 270.276520,88.208694 269.458923,89.230667 
	C268.972778,88.958084 268.486664,88.685493 268.000549,88.412910 
	C268.000549,85.137909 268.000549,81.862915 268.000549,78.113297 
z"/>
<path fill="#918F8A" opacity="1.000000" stroke="none" 
	d="
M322.438446,118.017471 
	C322.027924,117.554947 322.036041,117.058342 322.459381,116.257935 
	C327.142395,115.361069 331.594818,115.032829 333.171631,108.868042 
	C330.880585,108.868042 329.435638,108.868042 327.990723,108.868042 
	C327.979767,108.649605 327.968781,108.431175 327.936523,107.883682 
	C331.372101,106.569283 335.509491,105.792015 336.798401,109.854897 
	C338.198517,114.268387 333.863068,115.499077 330.581238,116.508842 
	C328.091034,117.275024 325.437775,117.511314 322.438446,118.017471 
z"/>
<path fill="#918F8A" opacity="1.000000" stroke="none" 
	d="
M199.992935,108.922508 
	C199.982346,108.695290 199.971771,108.468071 199.941544,107.898552 
	C203.521057,106.691460 207.941681,105.627914 209.163177,110.089859 
	C210.338074,114.381531 205.872696,115.536491 202.614532,116.536011 
	C200.123047,117.300308 197.475098,117.554604 194.484406,118.102165 
	C194.130844,117.615738 194.189651,117.062904 194.845612,116.278336 
	C199.707336,115.584274 203.664246,114.682037 205.413162,108.922508 
	C203.122284,108.922508 201.557602,108.922508 199.992935,108.922508 
z"/>
<path fill="#2A255D" opacity="1.000000" stroke="none" 
	d="
M277.338684,142.104370 
	C277.338226,147.387360 277.446320,152.184906 277.257996,156.970779 
	C277.212799,158.119766 276.182953,159.230011 275.605957,160.358063 
	C274.967041,159.295044 273.815582,158.250687 273.776031,157.165817 
	C273.583496,151.883698 273.590088,146.587479 273.766602,141.304260 
	C273.804230,140.178146 274.842499,139.085449 275.419800,137.977356 
	C276.059357,139.189774 276.698914,140.402191 277.338684,142.104370 
z"/>
<path fill="#A8B4BB" opacity="1.000000" stroke="none" 
	d="
M124.347328,136.970917 
	C123.724052,134.738617 123.533173,132.469635 123.275749,129.409714 
	C125.657959,129.409714 127.554108,129.409714 129.862701,129.564453 
	C130.055832,131.917145 129.836533,134.115097 129.584305,136.643066 
	C127.888916,136.745804 126.334320,136.840012 124.347328,136.970917 
z"/>
<path fill="#C5A8B8" opacity="1.000000" stroke="none" 
	d="
M130.144806,90.906570 
	C123.251724,92.323280 123.251724,92.323280 123.717529,84.320816 
	C125.626434,84.103409 127.376564,84.225311 129.566208,84.377831 
	C129.726456,86.481094 129.880417,88.501793 130.144806,90.906570 
z"/>
<path fill="#8A8883" opacity="1.000000" stroke="none" 
	d="
M177.577911,112.493378 
	C180.551270,108.696930 183.994873,105.953865 188.954941,107.473907 
	C189.178986,108.043892 189.403046,108.613876 189.627090,109.183861 
	C186.052673,110.428581 182.478256,111.673309 178.559235,113.070953 
	C178.065399,113.067970 177.916168,112.912071 177.577911,112.493378 
z"/>
<path fill="#918F8A" opacity="1.000000" stroke="none" 
	d="
M146.373138,102.761787 
	C145.968887,102.566284 145.954544,102.328323 145.924408,101.730927 
	C149.811676,101.241684 153.727615,100.903061 157.607956,101.142006 
	C158.480331,101.195732 159.228470,103.266930 159.709534,103.949371 
	C154.835373,103.486275 150.799194,103.102798 146.373138,102.761787 
z"/>
<path fill="#918F8A" opacity="1.000000" stroke="none" 
	d="
M276.342224,106.748337 
	C275.988586,106.491325 275.988922,106.131157 275.988129,105.500885 
	C278.820312,103.990173 281.653625,102.749573 284.486938,101.508972 
	C284.727600,102.088882 284.968262,102.668793 285.208893,103.248695 
	C282.371338,104.380859 279.533752,105.513016 276.342224,106.748337 
z"/>
<path fill="#D0CED1" opacity="1.000000" stroke="none" 
	d="
M77.984703,91.215797 
	C71.187065,91.215797 64.389420,91.215797 57.225403,91.215797 
	C57.225403,82.602509 57.225403,74.071587 57.225403,65.188194 
	C65.579292,64.690910 73.374023,66.550316 80.817848,69.896538 
	C81.954681,70.407570 82.998085,72.275757 83.141212,73.616936 
	C83.474236,76.737473 83.231667,79.919434 82.722580,83.554291 
	C75.805084,83.473854 78.750237,88.439415 77.984703,91.215797 
z"/>
<path fill="#FCFCFD" opacity="1.000000" stroke="none" 
	d="
M102.661781,137.095352 
	C102.661781,145.736893 102.661781,154.378433 102.661781,163.560760 
	C98.500587,163.560760 94.438286,163.560760 89.741119,163.560760 
	C90.133949,165.050461 90.417023,165.875626 90.564117,166.724350 
	C91.230232,170.567825 89.395729,173.025620 85.774696,173.476974 
	C82.315109,173.908234 79.746651,171.864883 79.921906,168.282043 
	C80.164810,163.316071 77.979240,159.681992 75.232880,155.701706 
	C75.941971,154.868912 76.294098,154.618912 76.883026,154.585617 
	C78.656219,156.550201 80.192604,158.298065 81.728996,160.045929 
	C83.331024,163.797165 85.634933,162.944977 88.613190,160.492676 
	C89.733276,158.620224 90.342934,157.272842 91.252640,156.114075 
	C91.772919,156.217438 91.993156,156.132172 92.482742,155.860870 
	C93.515671,154.130249 94.279243,152.585709 95.323174,150.992340 
	C95.918953,150.630829 96.234383,150.318130 96.549805,150.005432 
	C96.339691,149.821808 96.129578,149.638184 95.919464,149.454575 
	C95.599213,149.955444 95.278954,150.456314 94.608788,151.000732 
	C93.199951,152.425735 92.141037,153.807159 91.074165,155.398895 
	C91.066208,155.609207 91.027527,156.028336 90.705154,156.070877 
	C89.577713,156.999313 88.772644,157.885208 87.967583,158.771103 
	C87.476646,157.683929 86.583260,156.604630 86.561859,155.508286 
	C86.446556,149.600159 86.547714,143.687775 87.132118,137.380463 
	C89.408859,137.010895 91.127670,137.037766 92.938904,137.407440 
	C93.892143,139.222488 94.752968,140.694733 95.823952,142.526398 
	C96.106522,140.411865 96.315605,138.847229 96.549706,137.095352 
	C98.777077,137.095352 100.719429,137.095352 102.661781,137.095352 
M84.616508,165.420685 
	C83.878464,166.646133 82.775291,167.817352 82.581345,169.123566 
	C82.503304,169.649155 84.371758,170.894089 85.443588,171.014069 
	C86.202400,171.098999 87.925667,169.500229 87.817810,169.245041 
	C87.219063,167.828430 86.191673,166.592972 84.616508,165.420685 
z"/>
<path fill="#FEFFFF" opacity="1.000000" stroke="none" 
	d="
M120.863861,137.057053 
	C120.863861,145.797592 120.863861,154.538132 120.863861,163.546722 
	C115.766083,163.546722 110.860168,163.546722 105.223442,163.546722 
	C105.223442,155.099121 105.223442,146.565536 105.750710,137.568924 
	C111.139938,137.089600 116.001900,137.073334 120.863861,137.057053 
z"/>
<path fill="#FCFCFD" opacity="1.000000" stroke="none" 
	d="
M62.826538,115.067627 
	C67.466125,115.964584 71.666115,116.845459 76.141785,117.784157 
	C75.986115,120.958595 75.850563,123.722862 75.701340,126.765991 
	C66.761528,126.765991 58.174213,126.765991 49.213127,126.765991 
	C49.213127,116.179672 49.213127,105.469566 49.213127,94.419754 
	C50.663750,94.419754 52.186985,94.419754 54.125721,94.419754 
	C54.125721,100.972183 54.125721,107.405174 54.125721,114.064629 
	C57.129276,114.423454 59.758106,114.737503 62.826538,115.067627 
z"/>
<path fill="#D0CED1" opacity="1.000000" stroke="none" 
	d="
M83.034721,109.995773 
	C83.087425,110.162399 83.140129,110.329033 82.686096,110.751175 
	C78.766121,110.603645 76.322479,111.328163 76.890358,115.554779 
	C70.436775,114.171486 63.983185,112.788193 57.162540,111.326225 
	C57.162540,105.977470 57.162540,100.264198 57.162540,94.043747 
	C63.868553,94.043747 70.462952,94.043747 77.524910,94.568321 
	C77.992462,99.910866 77.992462,104.728836 77.992462,109.756393 
	C80.157356,109.859169 81.596039,109.927475 83.034721,109.995773 
z"/>
<path fill="#F7F7F9" opacity="1.000000" stroke="none" 
	d="
M48.923370,68.018410 
	C48.923367,64.396187 48.923367,61.270443 48.923367,57.956459 
	C60.606766,57.956459 71.831383,57.956459 83.293472,57.956459 
	C83.293472,61.289364 83.293472,64.364807 83.293472,66.744850 
	C73.902863,65.047676 64.577881,63.362366 54.363876,61.516380 
	C54.363876,72.490120 54.363876,81.872467 54.363876,91.468689 
	C52.322453,91.468689 50.910503,91.468689 48.923370,91.468689 
	C48.923370,83.727524 48.923370,76.121208 48.923370,68.018410 
z"/>
<path fill="#39519F" opacity="1.000000" stroke="none" 
	d="
M86.806511,110.243935 
	C86.806511,105.114525 86.806511,99.985107 86.806511,94.433243 
	C92.197342,94.433243 97.091171,94.433243 102.884384,94.433243 
	C102.884384,99.345207 102.884384,104.404968 102.391922,109.887543 
	C96.868477,110.288208 91.837494,110.266068 86.806511,110.243935 
z"/>
<path fill="#FCFCFD" opacity="1.000000" stroke="none" 
	d="
M86.778450,83.986122 
	C86.561790,69.117340 83.787857,71.514473 99.060272,66.755539 
	C100.125427,66.423637 101.249107,66.279564 102.803795,65.951439 
	C102.803795,71.859352 102.803795,77.417358 102.289886,83.466843 
	C96.776802,83.967590 91.777626,83.976860 86.778450,83.986122 
z"/>
<path fill="#0F743D" opacity="1.000000" stroke="none" 
	d="
M115.457535,113.516731 
	C117.014893,112.506218 118.268059,111.771095 119.521225,111.035965 
	C120.019997,112.129196 120.899483,113.205513 120.948906,114.318687 
	C121.124611,118.275841 121.017525,122.245544 121.017525,126.627487 
	C115.726067,126.627487 110.838699,126.627487 105.073540,126.627487 
	C105.073540,123.794266 104.773346,120.838387 105.221741,118.000816 
	C105.400307,116.870804 107.079094,115.564224 108.350052,115.112946 
	C110.502747,114.348610 112.873978,114.199730 115.457535,113.516731 
z"/>
<path fill="#F9F9FA" opacity="1.000000" stroke="none" 
	d="
M116.434082,83.825935 
	C116.434082,77.028305 116.434082,70.230675 116.434082,62.997063 
	C112.589249,62.997063 109.195061,62.997063 105.466812,62.997063 
	C105.362991,61.186062 105.283104,59.792419 105.182777,58.042313 
	C110.419014,58.042313 115.347786,58.042313 121.058701,58.042313 
	C121.058701,66.230179 121.058701,74.630753 120.634201,83.567688 
	C118.951164,84.011337 117.692627,83.918633 116.434082,83.825935 
z"/>
<path fill="#FCFCFD" opacity="1.000000" stroke="none" 
	d="
M105.355049,83.904724 
	C105.355049,77.960670 105.355049,72.016624 105.355049,65.648506 
	C108.149414,65.407669 110.744293,65.184029 113.978989,64.905251 
	C113.978989,71.159111 113.978989,77.090996 113.489403,83.513947 
	C110.451561,83.971588 107.903305,83.938148 105.355049,83.904724 
z"/>
<path fill="#E52026" opacity="1.000000" stroke="none" 
	d="
M114.006050,101.975998 
	C114.001717,104.280060 114.029831,106.110641 113.986183,107.939529 
	C113.899239,111.582802 111.164368,110.857231 108.919289,111.012512 
	C106.544594,111.176758 105.066208,110.509453 105.115868,107.767578 
	C105.193794,103.465988 105.136559,99.161949 105.136559,94.459404 
	C108.030479,94.459404 110.595917,94.459404 114.006050,94.459404 
	C114.006050,96.677734 114.006050,99.089745 114.006050,101.975998 
z"/>
<path fill="#BDC2D8" opacity="1.000000" stroke="none" 
	d="
M86.619797,84.337036 
	C91.777626,83.976860 96.776802,83.967590 102.220406,83.922653 
	C102.664833,86.318565 102.664833,88.750153 102.664833,91.477234 
	C97.244095,91.477234 92.175423,91.477234 86.461151,91.477234 
	C86.461151,89.187912 86.461151,86.937935 86.619797,84.337036 
z"/>
<path fill="#F0F0F4" opacity="1.000000" stroke="none" 
	d="
M86.436569,63.794918 
	C86.436623,61.730110 86.436623,60.101139 86.436623,58.141441 
	C91.997238,58.141441 97.179230,58.141441 102.413780,58.141441 
	C103.806656,62.070011 102.562737,63.762367 98.438286,64.454330 
	C94.616638,65.095482 90.970329,66.781738 86.820290,68.148224 
	C86.677612,66.691803 86.557068,65.461281 86.436569,63.794918 
z"/>
<path fill="#D0CED1" opacity="1.000000" stroke="none" 
	d="
M83.056206,136.997467 
	C83.125572,143.711700 83.194939,150.425934 82.919815,157.538544 
	C77.218307,153.245102 74.704529,147.641556 76.827072,140.462814 
	C77.147667,139.378540 77.035820,138.166397 77.546127,137.005844 
	C79.664246,136.998016 81.360222,136.997742 83.056206,136.997467 
z"/>
<path fill="#C2D5CE" opacity="1.000000" stroke="none" 
	d="
M120.946373,136.602524 
	C116.001900,137.073334 111.139938,137.089600 105.837509,137.115982 
	C105.397041,134.868240 105.397041,132.610397 105.397041,130.047974 
	C110.531815,130.047974 115.408508,130.047974 121.028885,130.047974 
	C121.028885,132.030090 121.028885,134.089035 120.946373,136.602524 
z"/>
<path fill="#DCD428" opacity="1.000000" stroke="none" 
	d="
M86.683167,110.585213 
	C91.837494,110.266068 96.868477,110.288208 102.349396,110.381638 
	C101.890404,111.640747 101.223305,113.423134 100.028847,113.908989 
	C95.827538,115.617897 91.445045,116.881363 86.559830,118.503632 
	C86.559830,116.210045 86.559830,113.568268 86.683167,110.585213 
z"/>
<path fill="#E5DB19" opacity="1.000000" stroke="none" 
	d="
M95.467468,126.960281 
	C94.647095,124.207947 94.234634,121.625633 93.725304,118.436920 
	C96.667709,117.573799 99.397125,116.773170 102.553192,115.847374 
	C102.553192,119.663086 102.553192,123.026314 102.553192,127.130287 
	C100.340431,127.130287 98.107903,127.130287 95.467468,126.960281 
z"/>
<path fill="#E52026" opacity="1.000000" stroke="none" 
	d="
M121.041962,107.739227 
	C119.970375,108.874084 118.910370,109.537903 117.850365,110.201721 
	C117.309196,109.311798 116.354599,108.445946 116.301125,107.527626 
	C116.108017,104.211273 116.337967,100.871574 116.180412,97.551491 
	C116.019310,94.156540 117.594933,93.512932 121.053535,94.598656 
	C121.053535,98.715332 121.053535,102.991760 121.041962,107.739227 
z"/>
<path fill="#FCFCFD" opacity="1.000000" stroke="none" 
	d="
M75.010277,155.408234 
	C70.586838,153.822769 69.775009,150.933121 70.635399,146.793686 
	C71.566826,142.312515 71.578415,137.646744 72.188446,133.087860 
	C72.354828,131.844498 73.231079,130.696121 73.781548,129.504135 
	C74.261589,129.639633 74.741638,129.775116 75.221680,129.910599 
	C75.221680,131.287292 75.221680,132.663986 75.099113,134.915558 
	C74.753197,138.944763 74.654358,142.114227 74.272842,145.249313 
	C73.858963,148.650375 73.749252,151.873795 76.646217,154.368896 
	C76.294098,154.618912 75.941971,154.868912 75.010277,155.408234 
z"/>
<path fill="#C2C2CB" opacity="1.000000" stroke="none" 
	d="
M83.115601,109.534195 
	C81.596039,109.927475 80.157356,109.859169 77.992462,109.756393 
	C77.992462,104.728836 77.992462,99.910866 77.987808,94.637703 
	C79.567108,94.182510 81.151062,94.182510 83.196487,94.182510 
	C83.196487,99.341331 83.196487,104.206970 83.115601,109.534195 
z"/>
<path fill="#E6BFC5" opacity="1.000000" stroke="none" 
	d="
M105.267319,84.348587 
	C107.903305,83.938148 110.451561,83.971588 113.427307,83.975281 
	C113.854790,86.402008 113.854790,88.858475 113.854790,91.586685 
	C111.026085,91.586685 108.440575,91.586685 105.179581,91.586685 
	C105.179581,89.302681 105.179581,87.047569 105.267319,84.348587 
z"/>
<path fill="#E1E0E8" opacity="1.000000" stroke="none" 
	d="
M92.547424,42.480637 
	C94.698067,43.469753 97.491562,44.310081 98.043365,45.919159 
	C98.544960,47.381805 96.935982,49.985249 95.572182,51.446083 
	C95.090004,51.962563 91.989517,51.066025 91.121712,49.983250 
	C89.117683,47.482765 89.678368,44.789181 92.547424,42.480637 
z"/>
<path fill="#E9E8EE" opacity="1.000000" stroke="none" 
	d="
M125.361488,42.943989 
	C125.944092,45.802269 126.202209,48.414703 126.543068,51.864594 
	C123.879715,51.432934 120.227974,51.689472 119.749893,50.579304 
	C118.872215,48.541222 119.527878,45.586189 120.296989,43.262531 
	C120.509125,42.621643 123.383926,42.862083 125.361488,42.943989 
z"/>
<path fill="#DCDAC7" opacity="1.000000" stroke="none" 
	d="
M102.760803,136.646271 
	C100.719429,137.095352 98.777077,137.095352 96.549706,137.095352 
	C96.315605,138.847229 96.106522,140.411865 95.823952,142.526398 
	C94.752968,140.694733 93.892143,139.222488 93.044029,137.335785 
	C93.056740,136.921326 93.280312,136.799835 93.627441,136.736282 
	C94.248497,135.057114 94.522430,133.441513 94.796356,131.825897 
	C97.126297,130.811111 99.456230,129.796341 102.859825,128.313950 
	C102.859825,132.023468 102.859825,134.110321 102.760803,136.646271 
z"/>
<path fill="#5C587E" opacity="1.000000" stroke="none" 
	d="
M76.883026,154.585617 
	C73.749252,151.873795 73.858963,148.650375 74.272842,145.249313 
	C74.654358,142.114227 74.753197,138.944763 75.097763,135.364624 
	C75.590782,134.964172 75.962585,134.989517 76.675995,135.323349 
	C77.053078,136.092361 77.088539,136.552872 77.124001,137.013397 
	C77.035820,138.166397 77.147667,139.378540 76.827072,140.462814 
	C74.704529,147.641556 77.218307,153.245102 82.928467,158.012146 
	C82.959862,158.709518 82.638130,159.331650 82.022697,159.999847 
	C80.192604,158.298065 78.656219,156.550201 76.883026,154.585617 
z"/>
<path fill="#D5D4DF" opacity="1.000000" stroke="none" 
	d="
M145.840515,48.052113 
	C146.662216,51.864342 144.013885,51.666786 142.160004,51.679008 
	C140.933807,51.687084 139.701187,50.717751 138.471436,50.186005 
	C139.716553,48.284634 140.961670,46.383263 142.193970,44.501465 
	C141.546417,44.591373 140.354660,44.756840 139.162888,44.922306 
	C139.023956,44.419113 138.885010,43.915916 138.746063,43.412724 
	C140.344254,43.004154 142.715637,41.755478 143.377319,42.364460 
	C144.695267,43.577454 145.073517,45.811440 145.840515,48.052113 
z"/>
<path fill="#E6E5EC" opacity="1.000000" stroke="none" 
	d="
M110.106674,47.920586 
	C109.218971,46.246803 108.331818,44.970818 106.857246,42.849960 
	C109.260452,42.836082 112.932098,41.803101 115.252068,43.131214 
	C117.012917,44.139252 117.053024,48.153069 117.858810,50.829411 
	C117.157013,51.032303 116.455215,51.235195 115.753418,51.438087 
	C115.291916,49.014938 114.830421,46.591789 114.368919,44.168640 
	C114.014923,44.157719 113.660927,44.146797 113.306931,44.135876 
	C112.785866,46.653137 112.264809,49.170399 111.743752,51.687656 
	C111.389671,51.694046 111.035591,51.700436 110.681511,51.706825 
	C110.490082,50.577347 110.298653,49.447868 110.106674,47.920586 
z"/>
<path fill="#E9E8EE" opacity="1.000000" stroke="none" 
	d="
M64.381226,48.627502 
	C64.160858,49.895046 63.941593,50.776119 63.722328,51.657192 
	C63.364975,51.672230 63.007622,51.687271 62.650272,51.702309 
	C62.302975,49.186165 61.955677,46.670025 61.608379,44.153881 
	C61.137070,44.067303 60.665756,43.980724 60.194447,43.894146 
	C59.606346,46.446281 59.018242,48.998417 58.430141,51.550552 
	C58.134228,51.506390 57.838314,51.462223 57.542400,51.418060 
	C57.542400,47.160706 57.542400,42.903351 57.542400,38.645992 
	C57.839691,38.586266 58.136986,38.526543 58.434277,38.466816 
	C58.781914,39.863926 59.129547,41.261036 59.465355,42.610619 
	C65.310913,40.842487 64.170654,45.134724 64.381226,48.627502 
z"/>
<path fill="#E6E5EC" opacity="1.000000" stroke="none" 
	d="
M54.561333,50.553719 
	C52.275906,50.720161 50.228996,50.585052 48.182091,50.449944 
	C48.422535,47.915001 48.318417,45.257385 49.146454,42.931644 
	C49.352654,42.352489 52.569221,42.845119 54.402119,42.845119 
	C54.448723,43.330387 54.495323,43.815655 54.541927,44.300919 
	C53.809921,44.725594 53.077915,45.150269 53.053001,45.164722 
	C53.682526,46.998116 54.241188,48.625137 54.561333,50.553719 
z"/>
<path fill="#D0CED1" opacity="1.000000" stroke="none" 
	d="
M134.522095,50.068569 
	C134.486115,47.917149 134.486115,46.141998 134.486115,44.366844 
	C133.843948,44.196804 133.201782,44.026764 132.559616,43.856724 
	C131.624588,46.452404 130.689575,49.048088 129.754547,51.643768 
	C129.483429,51.655674 129.212296,51.667580 128.941177,51.679489 
	C128.941177,48.742630 128.941177,45.805767 128.941177,42.694691 
	C137.626831,39.696239 134.634811,47.646164 136.787064,52.196011 
	C135.564819,51.235779 135.061432,50.840305 134.522095,50.068569 
z"/>
<path fill="#E9E8EE" opacity="1.000000" stroke="none" 
	d="
M68.602821,51.852547 
	C62.074123,47.201931 69.349625,47.067474 70.792564,44.451710 
	C69.303680,44.526295 68.087158,44.587234 66.870636,44.648178 
	C66.791229,44.149933 66.711823,43.651688 66.632416,43.153442 
	C68.299538,42.874168 71.322540,42.107677 71.424316,42.390892 
	C72.457130,45.265137 73.013290,48.310665 73.825989,51.842430 
	C71.477615,51.842430 70.253883,51.842430 68.602821,51.852547 
z"/>
<path fill="#E1E0E8" opacity="1.000000" stroke="none" 
	d="
M77.787720,49.357567 
	C77.360458,50.399708 76.939217,51.019466 76.517975,51.639229 
	C76.085976,51.028244 75.323479,50.439117 75.281364,49.802345 
	C75.130005,47.513744 75.221970,45.209049 75.221970,42.931622 
	C83.210037,42.109154 84.967400,44.447906 81.550377,52.268990 
	C80.985268,49.152184 80.536705,46.678200 80.088150,44.204216 
	C79.566666,44.198814 79.045189,44.193413 78.523712,44.188011 
	C78.280388,45.770401 78.037071,47.352791 77.787720,49.357567 
z"/>
<path fill="#E9E8EE" opacity="1.000000" stroke="none" 
	d="
M150.016876,42.847183 
	C151.003296,42.794247 151.990219,42.687656 152.976059,42.696930 
	C160.348984,42.766289 161.001877,43.692715 158.338379,51.679497 
	C157.901978,49.237133 157.465561,46.794769 157.029160,44.352409 
	C156.684769,44.242661 156.340393,44.132915 155.996002,44.023167 
	C155.086197,46.341614 154.176407,48.660061 152.963242,51.751587 
	C152.169922,48.861568 151.549515,46.601440 150.503357,44.068073 
	C150.057358,43.478947 150.037109,43.163063 150.016876,42.847183 
z"/>
<path fill="#A8B4BB" opacity="1.000000" stroke="none" 
	d="
M78.295410,91.387665 
	C78.750237,88.439415 75.805084,83.473854 82.653152,84.013741 
	C83.259544,86.243462 83.435623,88.491516 83.675919,91.559532 
	C81.676033,91.559532 80.141075,91.559532 78.295410,91.387665 
z"/>
<path fill="#D5D4DF" opacity="1.000000" stroke="none" 
	d="
M84.346970,42.571373 
	C85.060707,41.250214 85.622879,40.281845 86.185051,39.313473 
	C86.621185,39.304333 87.057312,39.295189 87.493439,39.286045 
	C87.856255,43.183331 88.219063,47.080612 88.758339,52.873520 
	C87.003685,51.085712 85.581917,50.258003 85.171738,49.078503 
	C84.500175,47.147423 84.486549,44.987537 84.346970,42.571373 
z"/>
<path fill="#F1EFC2" opacity="1.000000" stroke="none" 
	d="
M92.951614,136.992981 
	C91.127670,137.037766 89.408859,137.010895 87.255470,136.983231 
	C86.715317,134.765930 86.609726,132.549438 86.476555,129.753922 
	C88.640030,129.753922 90.363609,129.753922 92.513077,130.320435 
	C93.052742,132.857910 93.166527,134.828873 93.280304,136.799835 
	C93.280312,136.799835 93.056740,136.921326 92.951614,136.992981 
z"/>
<path fill="#CBC8BD" opacity="1.000000" stroke="none" 
	d="
M77.546127,137.005844 
	C77.088539,136.552872 77.053078,136.092361 76.953636,135.291168 
	C76.980469,133.476883 77.071289,132.003265 77.194389,130.005875 
	C78.941879,129.910889 80.671143,129.816879 83.228371,129.677872 
	C83.228371,131.993759 83.228371,134.044647 83.142288,136.546509 
	C81.360222,136.997742 79.664246,136.998016 77.546127,137.005844 
z"/>
<path fill="#E5DB19" opacity="1.000000" stroke="none" 
	d="
M90.121208,127.243149 
	C88.635246,126.648407 87.532028,126.052971 86.428810,125.457527 
	C88.051682,123.779846 89.674553,122.102173 91.297424,120.424500 
	C91.693298,120.719337 92.089180,121.014175 92.485062,121.309013 
	C91.833549,123.289047 95.645035,126.389687 90.121208,127.243149 
z"/>
<path fill="#C5A8B8" opacity="1.000000" stroke="none" 
	d="
M116.321762,84.260742 
	C117.692627,83.918633 118.951164,84.011337 120.584007,84.031403 
	C120.958305,86.407242 120.958305,88.855728 120.958305,91.622322 
	C114.093102,92.556816 116.734695,87.551567 116.321762,84.260742 
z"/>
<path fill="#CBC8BD" opacity="1.000000" stroke="none" 
	d="
M77.156235,115.772690 
	C76.322479,111.328163 78.766121,110.603645 82.616837,111.004021 
	C83.054306,113.255638 83.054306,115.509903 83.054306,118.159676 
	C80.971931,117.357712 79.197021,116.674156 77.156235,115.772690 
z"/>
<path fill="#C2C2CB" opacity="1.000000" stroke="none" 
	d="
M149.756989,42.594910 
	C150.037109,43.163063 150.057358,43.478947 150.148483,44.264389 
	C150.018585,47.075275 149.817810,49.416607 149.572510,52.277393 
	C146.187302,48.645924 146.437393,43.800583 149.756989,42.594910 
z"/>
<path fill="#CBC8BD" opacity="1.000000" stroke="none" 
	d="
M78.260078,121.520447 
	C81.197533,122.011841 84.164696,122.567513 82.872093,126.865448 
	C81.218231,126.865448 79.519875,126.865448 77.462700,126.865448 
	C77.664413,124.982315 77.833778,123.401131 78.260078,121.520447 
z"/>
<path fill="#7C7892" opacity="1.000000" stroke="none" 
	d="
M93.627434,136.736282 
	C93.166527,134.828873 93.052742,132.857910 92.953430,130.461411 
	C93.418854,130.554398 93.869789,131.072906 94.558548,131.708664 
	C94.522430,133.441513 94.248497,135.057114 93.627434,136.736282 
z"/>
<path fill="#7C7892" opacity="1.000000" stroke="none" 
	d="
M90.952591,155.925446 
	C90.342934,157.272842 89.733276,158.620224 88.848991,160.159882 
	C88.499268,160.078659 88.424164,159.805161 88.158325,159.151398 
	C88.772644,157.885208 89.577713,156.999313 90.684975,156.046249 
	C90.987167,155.979080 90.952583,155.925446 90.952591,155.925446 
z"/>
<path fill="#D5D4DF" opacity="1.000000" stroke="none" 
	d="
M125.969902,206.855850 
	C125.276588,209.888077 124.159149,212.086746 120.360664,209.827988 
	C120.080269,210.088791 120.124672,210.138046 120.124672,210.138046 
	C120.070847,209.083328 119.762756,207.960663 120.022171,206.989624 
	C120.421967,205.493118 121.210709,204.100525 121.834457,202.663849 
	C122.999969,203.676880 124.165482,204.689911 125.669739,206.051758 
	C126.008484,206.400589 125.969902,206.855850 125.969902,206.855850 
z"/>
<path fill="#D5D4DF" opacity="1.000000" stroke="none" 
	d="
M99.069901,209.784286 
	C97.600677,210.967300 96.141457,211.704819 94.682236,212.442337 
	C94.164665,211.931702 93.647087,211.421051 93.129509,210.910416 
	C94.666794,208.027115 96.204086,205.143799 97.741371,202.260498 
	C98.187553,202.332397 98.633728,202.404297 99.079910,202.476212 
	C99.079910,204.763748 99.079910,207.051270 99.069901,209.784286 
z"/>
<path fill="#E1E0E8" opacity="1.000000" stroke="none" 
	d="
M126.267090,207.095947 
	C125.969902,206.855850 126.008484,206.400589 125.992538,206.172699 
	C126.940231,204.326767 127.903870,202.708725 128.867508,201.090698 
	C129.846161,202.647171 131.163208,204.103577 131.665237,205.801010 
	C131.928848,206.692261 130.765259,208.005600 130.246140,209.128342 
	C129.018845,208.530899 127.791557,207.933472 126.267090,207.095947 
z"/>
<path fill="#E6E5EC" opacity="1.000000" stroke="none" 
	d="
M154.048553,200.743362 
	C151.550385,197.101746 155.265182,196.236984 156.361664,194.355362 
	C157.666519,195.311279 158.971390,196.266205 160.300156,197.238647 
	C159.603485,200.655380 157.724487,202.288239 154.048553,200.743362 
z"/>
<path fill="#E9E8EE" opacity="1.000000" stroke="none" 
	d="
M55.470116,201.308136 
	C54.299641,200.144409 53.476463,198.848373 52.679302,197.593292 
	C54.061085,196.423523 55.271439,195.398880 56.505665,194.354019 
	C57.560230,195.260834 58.739292,196.274704 59.934841,197.302750 
	C59.515701,198.748489 59.083534,200.239151 58.691395,201.591751 
	C57.717888,201.450867 56.767651,201.313354 55.470116,201.308136 
z"/>
<path fill="#D5D4DF" opacity="1.000000" stroke="none" 
	d="
M120.060844,210.061920 
	C118.452156,210.846252 116.862885,211.657471 115.273621,212.468689 
	C115.010521,212.146118 114.747421,211.823547 114.484329,211.500961 
	C115.312042,209.639099 116.139763,207.777237 117.171440,205.456589 
	C115.933998,205.564331 115.037910,205.642365 114.072479,205.726425 
	C114.171700,205.092392 114.199272,204.515961 114.272095,204.510193 
	C115.620728,204.403229 117.010315,204.183273 118.302917,204.437073 
	C118.630379,204.501358 118.525223,206.169876 118.848511,207.013214 
	C119.214333,207.967468 115.099487,209.816467 119.772751,210.026962 
	C120.124672,210.138046 120.080269,210.088791 120.060844,210.061920 
z"/>
<path fill="#E1E0E8" opacity="1.000000" stroke="none" 
	d="
M81.939247,203.963318 
	C83.521370,203.963318 85.103493,203.963318 86.892197,203.963318 
	C86.447830,205.732422 86.084526,207.178772 85.701096,208.705261 
	C84.662422,208.169708 83.657928,207.651779 82.302078,206.635590 
	C81.946892,205.412674 81.943069,204.687988 81.939247,203.963318 
z"/>
<path fill="#5C587E" opacity="1.000000" stroke="none" 
	d="
M81.794052,203.901703 
	C81.943069,204.687988 81.946892,205.412674 81.993011,206.500610 
	C80.694496,207.088242 79.045853,211.724503 78.480774,206.227631 
	C79.704056,205.222519 80.525688,204.577652 81.347313,203.932770 
	C81.347313,203.932770 81.648849,203.840103 81.794052,203.901703 
z"/>
<path fill="#F5F5F7" opacity="1.000000" stroke="none" 
	d="
M81.204803,203.622879 
	C80.525688,204.577652 79.704056,205.222519 78.487724,205.861603 
	C78.228989,205.570480 78.364960,205.285156 78.918869,204.906982 
	C79.661469,204.727112 79.844673,204.516830 79.954254,203.731018 
	C80.050980,202.975235 80.079865,202.671722 80.108749,202.368225 
	C80.426598,202.683151 80.744453,202.998062 81.204803,203.622879 
z"/>
<path fill="#5C587E" opacity="1.000000" stroke="none" 
	d="
M75.113007,206.298737 
	C75.894424,206.580917 76.457100,206.972290 77.019768,207.363663 
	C76.646057,207.784409 76.272346,208.205170 75.898636,208.625916 
	C75.563843,207.886581 75.229042,207.147247 75.113007,206.298737 
z"/>
<path fill="#E1E0E8" opacity="1.000000" stroke="none" 
	d="
M79.866455,202.130890 
	C80.079865,202.671722 80.050980,202.975235 79.727020,203.661102 
	C79.431946,204.043427 78.957214,204.071716 78.957214,204.071716 
	C78.390549,203.561111 77.823891,203.050507 76.845459,202.168839 
	C78.010796,202.053391 78.817482,201.973480 79.866455,202.130890 
z"/>
<path fill="#5C587E" opacity="1.000000" stroke="none" 
	d="
M78.901672,204.225006 
	C78.957214,204.071716 79.431946,204.043427 79.659180,204.113358 
	C79.844673,204.516830 79.661469,204.727112 79.123779,204.756042 
	C78.910751,204.697937 78.846123,204.378311 78.901672,204.225006 
z"/>
<path fill="#5C587E" opacity="1.000000" stroke="none" 
	d="
M81.437790,209.400299 
	C81.546379,209.323730 81.600235,209.610840 81.600235,209.610840 
	C81.600235,209.610840 81.329193,209.476868 81.437790,209.400299 
z"/>
<path fill="#F7F7F9" opacity="1.000000" stroke="none" 
	d="
M222.854675,121.862976 
	C219.064346,120.655083 219.377274,117.696808 220.704239,115.763268 
	C222.514069,113.126083 225.038910,110.548325 227.857315,109.192825 
	C229.608521,108.350594 232.469925,109.816719 234.833038,110.246773 
	C235.093140,110.823959 235.353226,111.401138 235.613327,111.978325 
	C231.486771,115.272324 227.360229,118.566322 222.854675,121.862976 
z"/>
<path fill="#FCFCFD" opacity="1.000000" stroke="none" 
	d="
M199.703705,109.107635 
	C201.557602,108.922508 203.122284,108.922508 205.413162,108.922508 
	C203.664246,114.682037 199.707336,115.584274 195.011047,116.051582 
	C196.191071,113.801971 197.802780,111.547371 199.703705,109.107635 
z"/>
<path fill="#F7F7F9" opacity="1.000000" stroke="none" 
	d="
M311.776245,147.849915 
	C317.206207,145.384171 321.634338,146.651947 321.743439,150.792343 
	C321.802277,153.025070 320.482147,156.396454 318.771454,157.269272 
	C316.993958,158.176178 312.757233,157.486908 311.833801,156.053787 
	C310.591492,154.125671 311.492828,150.816391 311.776245,147.849915 
z"/>
<path fill="#F9F9FA" opacity="1.000000" stroke="none" 
	d="
M221.047546,78.211411 
	C218.973419,78.211449 217.341660,78.211449 215.709885,78.211449 
	C215.480408,77.822479 215.250946,77.433510 215.021469,77.044540 
	C216.636154,75.967819 218.213898,74.090714 219.874756,74.014061 
	C222.020142,73.915047 224.231934,75.254944 226.415146,75.975220 
	C226.277008,76.612930 226.138885,77.250633 226.000763,77.888336 
	C224.497147,77.996010 222.993530,78.103691 221.047546,78.211411 
z"/>
<path fill="#E6E5EC" opacity="1.000000" stroke="none" 
	d="
M170.046448,150.762939 
	C166.201447,150.827667 162.761826,150.827667 159.048416,150.827667 
	C159.478622,146.991272 162.103271,146.135117 164.900528,146.195755 
	C167.651505,146.255386 170.569717,146.788696 170.046448,150.762939 
z"/>
<path fill="#F9F9FA" opacity="1.000000" stroke="none" 
	d="
M327.235840,86.296738 
	C322.511993,85.096985 321.574219,81.969048 322.399994,78.184799 
	C323.147400,74.759972 325.646057,73.338051 329.081451,73.818108 
	C332.338684,74.273254 333.942047,76.240112 334.050354,79.551987 
	C334.196472,84.022423 332.191528,86.376144 327.235840,86.296738 
z"/>
<path fill="#F9F9FA" opacity="1.000000" stroke="none" 
	d="
M286.713318,149.006424 
	C289.133392,147.869125 291.398254,146.307083 293.547363,146.452774 
	C297.083191,146.692459 299.154205,149.261459 298.776550,152.996262 
	C298.392975,156.789551 295.824402,158.439499 292.238190,158.286667 
	C288.795776,158.139969 286.042145,156.831482 286.034607,152.736496 
	C286.032532,151.607559 286.340454,150.478073 286.713318,149.006424 
z"/>
<path fill="#F9F9FA" opacity="1.000000" stroke="none" 
	d="
M259.672058,146.252258 
	C264.740021,148.407379 266.290680,151.399658 264.611359,155.091568 
	C263.344421,157.876923 258.697357,159.244492 255.468109,157.782288 
	C252.599701,156.483475 251.010132,152.037781 253.144211,149.323364 
	C254.432541,147.684677 257.188049,147.199463 259.672058,146.252258 
z"/>
<path fill="#FCFCFD" opacity="1.000000" stroke="none" 
	d="
M327.682800,109.012344 
	C329.435638,108.868042 330.880585,108.868042 333.171631,108.868042 
	C331.594818,115.032829 327.142395,115.361069 322.486755,115.886414 
	C323.857574,113.598007 325.616241,111.377335 327.682800,109.012344 
z"/>
<path fill="#3C386B" opacity="1.000000" stroke="none" 
	d="
M84.963760,165.358093 
	C86.191673,166.592972 87.219063,167.828430 87.817810,169.245041 
	C87.925667,169.500229 86.202400,171.098999 85.443588,171.014069 
	C84.371758,170.894089 82.503304,169.649155 82.581345,169.123566 
	C82.775291,167.817352 83.878464,166.646133 84.963760,165.358093 
z"/>
<path fill="#F5F5F7" opacity="1.000000" stroke="none" 
	d="
M91.082123,155.188583 
	C92.141037,153.807159 93.199951,152.425735 94.629562,151.022003 
	C95.000244,150.999695 95.042824,151.041153 95.042816,151.041153 
	C94.279243,152.585709 93.515671,154.130249 92.370499,155.627213 
	C91.686646,155.449280 91.384377,155.318924 91.082123,155.188583 
z"/>
<path fill="#F5F5F7" opacity="1.000000" stroke="none" 
	d="
M94.979477,150.978439 
	C95.278954,150.456314 95.599213,149.955444 95.919464,149.454575 
	C96.129578,149.638184 96.339691,149.821808 96.549805,150.005432 
	C96.234383,150.318130 95.918953,150.630829 95.323181,150.992340 
	C95.042824,151.041153 95.000244,150.999695 94.979477,150.978439 
z"/>
<path fill="#7C7892" opacity="1.000000" stroke="none" 
	d="
M91.074158,155.398895 
	C91.384377,155.318924 91.686646,155.449280 92.101151,155.813263 
	C91.993156,156.132172 91.772919,156.217438 91.252640,156.114075 
	C90.952583,155.925446 90.987167,155.979080 91.007347,156.003708 
	C91.027527,156.028336 91.066208,155.609207 91.074158,155.398895 
z"/>
</svg>